<?xml version="1.0" encoding="UTF-8"?><svg id="Layer_1" xmlns="http://www.w3.org/2000/svg" width="244" height="48" xmlns:xlink="http://www.w3.org/1999/xlink" viewBox="0 0 244 48"><defs><style>.cls-1{fill:#2b2b2d;}.cls-2{fill:url(#linear-gradient-2);}.cls-3{fill:#262626;}.cls-4{fill:#4e4f51;}.cls-5{fill:#404041;}.cls-6{fill:#3d3d3d;}.cls-7{fill:#4c4c4c;}.cls-8{fill:#5e5e61;}.cls-9{fill:#7f8082;}.cls-10{fill:#666767;}.cls-11{fill:#616363;}.cls-12{fill:#585959;}.cls-13{fill:#4a4a4a;}.cls-14{fill:#545455;}.cls-15{fill:#6a6968;}.cls-16{fill:#29292a;}.cls-17{fill:#3d3d3e;}.cls-18{fill:#202121;}.cls-19{fill:#020202;}.cls-20{fill:#2c2c2f;}.cls-21{fill:#09090a;}.cls-22{fill:#525255;}.cls-23{fill:#424343;}.cls-24{fill:#848688;}.cls-25{fill:#f48d36;}.cls-26{fill:#8d908f;}.cls-27{fill:#858789;}.cls-28{fill:#636467;}.cls-29{fill:#414243;}.cls-30{fill:#626263;}.cls-31{fill:#313131;}.cls-32{fill:#5e5f60;}.cls-33{fill:#707070;}.cls-34{fill:#8e9190;}.cls-35{fill:#565757;}.cls-36{fill:#616365;}.cls-37{fill:#5a5a5a;}.cls-38{fill:#606363;}.cls-39{fill:#6a6d6c;}.cls-40{fill:#686a6a;}.cls-41{fill:#898b8a;}.cls-42{fill:#272727;}.cls-43{fill:#616262;}.cls-44{fill:#818385;}.cls-45{fill:#2b2b2b;}.cls-46{fill:#676767;}.cls-47{fill:#646566;}.cls-48{fill:#c3c3c5;}.cls-49{fill:#67676a;}.cls-50{fill:#212121;}.cls-51{fill:#8e9090;}.cls-52{fill:#626564;}.cls-53{fill:#5d5d5d;}.cls-54{fill:#646666;}.cls-55{fill:#d97c2c;}.cls-56{fill:#1d1d1d;}.cls-57{fill:#5c5e5f;}.cls-58{fill:#717374;}.cls-59{fill:#2e2f30;}.cls-60{fill:#272627;}.cls-61{fill:#878a89;}.cls-62{fill:#4d4e50;}.cls-63{fill:#f48d38;}.cls-64{fill:#2b2b2c;}.cls-65{fill:#444447;}.cls-66{fill:#030304;}.cls-67{fill:#545454;}.cls-68{fill:#525252;}.cls-69{fill:#454545;}.cls-70{fill:#7f8182;}.cls-71{fill:url(#linear-gradient);}.cls-72{fill:#323233;}.cls-73{fill:#646565;}.cls-74{fill:#6d6d6d;}.cls-75{fill:#1f1f20;}.cls-76{fill:#4b4c4c;}.cls-77{fill:#2f3031;}.cls-78{fill:#4f5151;}.cls-79{fill:#484a4a;}.cls-80{fill:#5e5e5f;}.cls-81{fill:#888b8a;}.cls-82{fill:#010101;}.cls-83{fill:#b44c1a;}.cls-84{fill:#444346;}</style><linearGradient id="linear-gradient" x1="258.59" y1="-390.68" x2="279.75" y2="-390.68" gradientTransform="translate(-68.53 449.98) rotate(-9.32)" gradientUnits="userSpaceOnUse"><stop offset="0" stop-color="#000"/><stop offset=".08" stop-color="#040404"/><stop offset=".16" stop-color="#111"/><stop offset=".25" stop-color="#272727"/><stop offset=".33" stop-color="#454545"/><stop offset=".42" stop-color="#6c6c6c"/><stop offset=".51" stop-color="#9b9b9b"/><stop offset=".53" stop-color="#a6a6a6"/><stop offset=".55" stop-color="#939393"/><stop offset=".59" stop-color="#6c6c6c"/><stop offset=".64" stop-color="#4b4b4b"/><stop offset=".7" stop-color="#2f2f2f"/><stop offset=".75" stop-color="#1a1a1a"/><stop offset=".81" stop-color="#0b0b0b"/><stop offset=".89" stop-color="#020202"/><stop offset="1" stop-color="#000"/></linearGradient><linearGradient id="linear-gradient-2" x1="101.08" y1="34.32" x2="132.6" y2="2.8" gradientTransform="matrix(1, 0, 0, 1, 0, 0)" xlink:href="#linear-gradient"/></defs><path d="M133.83,20.99c.31,0,.61-.02,.92,0,.23,.01,.44,.09,.64,.21,.5,.3,.54,.86,.09,1.24-.23,.19-.5,.33-.79,.41-.71,.19-1.42,.38-2.14,.55-2.09,.49-4.2,.95-6.29,1.45-1.78,.43-3.53,.97-5.21,1.71-.27,.12-.55,.24-.81,.39-.16,.09-.28,.23-.42,.35-.43,.4-.9,.75-1.4,1.04-.35,.2-.74,.34-1.11,.51-.03,.01-.05,.03-.08,.04-.1,.01-.09-.05-.1-.12-.01-.23-.01-.47-.05-.7-.1-.56-.49-.86-1.05-.84-.07,0-.15,.01-.22,.03-.61,.12-1.16,.39-1.64,.79-.36,.3-.64,.66-.85,1.07-.04,.08-.08,.14-.18,.12-.19-.07-.38-.15-.57-.22,.05-.06,.1-.12,.16-.17,.28-.22,.56-.44,.79-.72,.18-.23,.31-.47,.31-.77,0-.05,0-.1,0-.15,0-.1,.05-.13,.14-.12,.1,0,.2,0,.31,0,.12,.01,.25,.04,.37,.03,.58,0,1.17-.01,1.75-.04,.52-.03,1.03-.09,1.53-.26,.21-.07,.42-.17,.62-.28,.19-.11,.19-.26,.03-.41-.09-.07-.19-.13-.3-.18-.45-.18-.92-.28-1.39-.35-.83-.12-1.66-.21-2.49-.32-.12-.02-.23-.05-.34-.08,.72-.07,1.43,0,2.14,.1,.92,.13,1.84,.29,2.76,.45,.19,.03,.37,.03,.56-.04,.58-.21,1.17-.4,1.76-.6,1.53-.5,3.05-.99,4.58-1.49,1.82-.6,3.64-1.2,5.47-1.8,.43-.14,.85-.29,1.28-.44,.3-.09,.61-.19,.91-.29,.01,0,.01-.04,.02-.06h.07c.08-.02,.16-.03,.24-.04Z"/><path class="cls-56" d="M110.15,25.41c-.18,0-.19,0-.18-.19,.04-.65,.08-1.31,.12-1.96,.05-.96,.11-1.92,.16-2.88,.01-.09,.03-.17,.04-.26,.02-.27,.04-.53,.05-.8,.15,.01,.3,.02,.45,.04,.18,.02,.35,.06,.53,.09,.28,.04,.33,0,.33-.28,0-.04,0-.07,0-.11,.01-.18,.03-.35,.04-.53,0-.07,0-.14,.01-.21,.01-.12,.03-.24,.04-.36,0-.34,0-.34,.35-.44,.07,.02,.15,.03,.22,.05-.07,.02-.14,.04-.21,.06-.13,.03-.19,.08-.2,.23-.02,.49-.05,.97-.08,1.46,0,.09,0,.19-.02,.28-.02,.1,.01,.16,.12,.16,.17,0,.33,0,.48-.09,.09-.04,.18-.09,.26-.13,.24,.05,.47,.1,.71,.14,.1,.02,.2,.04,.3,.03,.07,0,.16-.05,.2-.1,.08-.1,.13-.22,.2-.34,.04-.12,.09-.23,.13-.35,.03-.12,.06-.23,.09-.35,.02-.12,.03-.23,.05-.35,.01-.14,.04-.29,.04-.43,0-.4,.09-.4-.38-.49-.4-.07-.8-.13-1.2-.18-.36-.05-.73-.1-1.09-.15-.39-.05-.79-.1-1.18-.16,0-.08,0-.16,0-.25,.03,0,.05-.01,.08-.02,.03-.01,.06-.02,.09-.04,.2-.03,.41-.06,.61-.09,.03,.03,.05,.08,.08,.09,.46,.08,.93,.15,1.39,.22,.25,.04,.5,.08,.75,.12,.24,.03,.48,.06,.72,.09,.01-.43-.38-.66-.72-.77-.15-.05-.31-.04-.47-.04-.13,0-.26,.01-.39,.02,.45-.13,.9-.11,1.33,.09,.09,.09,.17,.17,.26,.26,.16,.16,.2,.38,.26,.58-.01,.47,0,.95-.04,1.42-.02,.24-.06,.48-.19,.71-.14,.25-.26,.5-.47,.7-.07,.07-.09,.12,0,.18,.1,.06,.18,.15,.26,.23,.26,.28,.36,.61,.35,.98,0,.41-.02,.82-.04,1.22-.03,.44-.11,.88-.35,1.26-.3,.49-.71,.84-1.25,1.02-.2,.07-.4,.13-.59,.2h0c-.38,.07-.75,.13-1.13,.2-.17,.03-.33,.07-.5,.11l-.4,.08Zm2.63-4.2c-.06-.04-.12-.11-.18-.12-.11-.01-.23,.02-.34,.03-.16,.03-.31,.05-.47,.09-.04,.01-.09,.09-.1,.14-.03,.13-.04,.27-.04,.41-.02,.37-.03,.74-.05,1.11,0,.04,0,.09,0,.13-.02,.24-.03,.47-.05,.73,.23-.04,.43-.08,.63-.12,.09-.03,.17-.06,.26-.09,.14-.06,.26-.15,.3-.31,.15-.27,.14-.57,.14-.87,0-.3,.03-.6,.02-.9,0-.08-.08-.16-.12-.24Z"/><path class="cls-55" d="M114.28,27.08c-.1,0-.2,0-.31,0-.09,0-.14,.02-.14,.12,0,.05,0,.1,0,.15,0,.3-.12,.54-.31,.77-.22,.28-.5,.5-.79,.72-.06,.05-.11,.11-.16,.17-.21,.13-.33,.34-.45,.55-.18,.33-.28,.69-.34,1.06-.03,.2-.15,.33-.29,.45-.12,.1-.34,.09-.47,0-.07-.05-.03-.09,0-.15,.06-.12,.12-.25,.17-.37,.02-.05,.02-.1,0-.15-.01-.05-.05-.09-.08-.14-.04,.03-.1,.04-.12,.08-.05,.1-.09,.21-.14,.33-.05-.08-.03-.16,0-.23,.09-.24,.16-.48,.27-.71,.26-.54,.22-1.05-.08-1.56-.17-.29-.35-.58-.5-.89-.25-.52-.2-1.03,.14-1.51,.11-.11,.22-.23,.33-.34,.14-.07,.29-.07,.43-.1,.15-.03,.3-.08,.46-.08,.03,0,.07-.05,.1-.08,.09,0,.18,0,.27,.01-.14,.11-.29,.17-.47,.17-.05,0-.13,.04-.15,.08-.04,.08,.03,.14,.1,.16,.09,.03,.19,.07,.27,.06,.27-.04,.3,.32,.55,.32,.03,0,.06,.06,.08,.1,.14,.29,.52,.54,.83,.55,.11,0,.16,.03,.16,.15,0,.15,.09,.2,.24,.15,.05-.02,.09-.04,.14-.07,.2-.09,.25-.07,.34,.17h-.42s0,.01,0,.02c.12,.02,.23,.05,.35,.07Zm-3.16-.76s-.01-.1-.04-.17c-.06-.14-.22-.18-.29-.03-.07,.15-.16,.3-.2,.45-.03,.11-.02,.23,0,.34,0,.06,.07,.13,.13,.15,.08,.04,.15-.01,.2-.09,.12-.19,.22-.39,.21-.67Z"/><path class="cls-56" d="M119.2,20.94c.03-.1,.06-.21,.09-.31,.05,0,.1-.02,.14-.01,.09,.01,.18,.04,.28,.06,.38,.06,.76,.11,1.14,.17,.31,.05,.63,.1,.94,.14,.35,.05,.7,.1,1.05,.15,.07,.01,.14,.02,.22,.02,.03,0,.08-.05,.08-.08,0-.21-.02-.42-.03-.62-.01-.13-.03-.26-.04-.4,0-.06,0-.11-.01-.17,0-.08,.01-.16,0-.24-.02-.16-.06-.31-.08-.46,0-.07,0-.13,0-.2-.01-.16-.1-.28-.26-.31-.23-.04-.47-.07-.7-.11-.13-.02-.27-.08-.4,0-.01-.13-.03-.26-.04-.4,.1-.09,.21-.1,.34-.07,.25,.05,.5,.08,.75,.11,.21,.02,.24-.02,.21-.22-.03-.19-.06-.37-.08-.56-.02-.24-.03-.48-.05-.72-.01-.2-.03-.39-.05-.59-.04-.4-.08-.81-.13-1.21-.02-.18-.05-.36-.07-.54-.01-.13-.07-.18-.2-.16,.06-.01,.11-.03,.17-.04,.13-.03,.17,.04,.18,.15,.04,.37,.09,.75,.13,1.12,.05,.47,.09,.94,.14,1.41,0,.13,0,.26,0,.39,.04,.4,.08,.79,.12,1.19,.03,.32,.06,.65,.1,.97,.04,.37,.08,.73,.12,1.1,.04,.35,.07,.69,.1,1.04,.03,.33,.05,.66,.09,1,.01,.12-.04,.18-.14,.23-.28,.06-.56,.12-.84,.17-.04,.02-.09,.03-.13,.05-.1,.01-.2,.03-.31,.04-.07,0-.07-.05-.07-.1-.03-.33-.06-.66-.09-.99,0-.06,0-.12,0-.17,0-.29-.01-.26-.22-.22-.22,.04-.43,.09-.65,.13-.14,.02-.27,.03-.41,.06-.21,.05-.26,.13-.3,.35-.06,.32-.13,.63-.19,.95-.02,.12-.04,.24-.06,.36-.02,.01-.05,.03-.07,.04-.37,.08-.75,.15-1.12,.22-.18-.02-.21-.06-.17-.23,.06-.24,.12-.48,.18-.73,.02-.08,.02-.16,.03-.23,.02-.09,.03-.17,.05-.26l.04-.18c.07-.36,.15-.73,.22-1.09Z"/><path class="cls-25" d="M111.69,34.03c0,.31-.12,.57-.33,.78-.34,.34-.97,.25-1.2-.17-.14-.26-.1-.52,.01-.78,.09-.2,.22-.37,.31-.57,.1-.21,.17-.43,.24-.65,.03-.09,.05-.19,.15-.19,.07,0,.15,.05,.2,.11,.37,.42,.61,.9,.62,1.47Z"/><path class="cls-17" d="M116.91,36.73c.01-.09,.03-.18,.04-.27,0-.07,0-.14,.01-.22,.08-.02,.17-.03,.25-.06,.16-.08,.31-.21,.48-.25,.33-.08,.35-.3,.32-.57,0-.01,0-.03,0-.04,0-.29,0-.58,0-.87,0-.14,0-.28,0-.48-.38,.24-.71,.45-1.05,.65,0-.16,0-.32,0-.48,.47-.26,.95-.53,1.42-.79,.49-.27,.98-.53,1.46-.8,.04,.08,.07,.14,.1,.19-.16,.35-.42,.61-.76,.78-.23,.11-.47,.2-.71,.27-.37,.12-.37,.11-.38,.49,0,.66,0,1.31,0,1.97,0,.21,0,.21-.2,.27-.32,.09-.63,.17-.95,.26-.02-.01-.03-.03-.05-.04Z"/><path class="cls-24" d="M129.64,29.59s-.09-.06-.14-.08c-.02,.05-.07,.1-.07,.14,0,.26,0,.51,0,.77,0,.91,0,1.81,0,2.72,0,.07-.03,.15-.05,.22,0-1.15,0-2.3,0-3.45,0-.01,0-.03,0-.04,.01-.36,.03-.71,.04-1.07,0-.11-.04-.21-.07-.32-.02,0-.04,0-.06,0v.71c-.11,.04-.23,.07-.34,.11-.09,.04-.16,.12-.24,.13-.32,.06-.38,.27-.33,.55,0,.01,0,.03,0,.04v.53c0,.91,0,1.82,0,2.73,0,.09,0,.18,0,.26,0,.03,.06,.06,.09,.09,0,.01,0,.02,0,.04-.05-.01-.09-.03-.14-.04,0-.1,0-.21,0-.31,0-1.1,0-2.2,0-3.3,0-.98,0-1.95,0-2.93,.02-.1,.04-.2,.06-.31,0,.32,0,.64,0,.96,0,.2,0,.41,0,.61v.51c.58-.32,1.17-.63,1.75-.95,.07,.25,.15,.5,.22,.74-.06,.04-.11,.09-.17,.13-.16,.09-.33,.17-.5,.25-.11,.05-.18,.09-.1,.24,.05,.09,.05,.21,.07,.31Z"/><path class="cls-82" d="M112.53,36.25c-.02-.18-.07-.37-.07-.55,0-.31,.05-.62,.07-.94,0-.09,.05-.12,.13-.14,.35-.14,.71-.29,1.06-.43,.03-.02,.06-.03,.09-.05,.08,0,.07,.06,.07,.12-.02,.31-.04,.62-.06,.93,0,.07-.01,.16,.02,.21,.06,.1,.02,.12-.05,.16-.27,.13-.54,.25-.79,.41-.14,.08-.34,.09-.38,.3-.02,0-.04,0-.06-.01Z"/><path class="cls-63" d="M110.42,29.74c0,.61-.33,.87-.68,.8-.35-.07-.58-.49-.46-.84,.13-.39,.36-.71,.75-.89,.07-.03,.13-.09,.2-.13,.1-.05,.17,0,.19,.1,0,.03,0,.06,0,.09,0,.34,0,.68,0,.87Z"/><path class="cls-29" d="M131.83,25.81c0,.09,0,.17,.01,.26,0,.04,0,.09,0,.13,0,2.05,0,4.11,0,6.16,0,.05,0,.1,0,.15-.02,.06-.03,.12-.05,.18,0-.08,0-.16,0-.24,0-1.35,0-2.7,0-4.05,0-.08-.02-.15-.04-.23,0-.09,0-.18-.01-.27,0-.27,0-.55,0-.82v-.36c.08-.29,.07-.58,.01-.87,0,0-.01,0-.02-.01,0-.01,0-.02,0-.04,.03,0,.06,0,.08,0Z"/><path class="cls-25" d="M113.5,25.14c.18,.02,.36,.03,.54,.05,.11,.03,.23,.06,.34,.08,.83,.11,1.66,.2,2.49,.32,.48,.07,.95,.17,1.39,.35,.11,.04,.21,.1,.3,.18,.17,.14,.16,.3-.03,.41-.2,.11-.4,.21-.62,.28-.49,.17-1.01,.23-1.53,.26-.58,.03-1.17,.04-1.75,.04-.12,0-.25-.02-.37-.03-.12-.02-.23-.05-.35-.07,0,0,0-.01,0-.02h.42c-.09-.24-.15-.26-.34-.17-.05,.02-.09,.05-.14,.07-.15,.05-.23,0-.24-.15,0-.12-.05-.14-.16-.15-.31,0-.68-.27-.83-.55-.02-.04-.05-.1-.08-.1-.25,0-.27-.36-.55-.32-.09,.01-.18-.03-.27-.06-.07-.02-.14-.08-.1-.16,.02-.04,.1-.08,.15-.08,.18,0,.33-.06,.47-.17,.12,0,.23-.01,.35-.02,.19,0,.38,0,.57,0,.1,0,.21,0,.31,0Z"/><path class="cls-15" d="M112.18,25.01c.2-.07,.4-.13,.59-.2,.54-.19,.95-.54,1.25-1.02,.24-.39,.32-.82,.35-1.26,.03-.41,.04-.81,.04-1.22,0-.37-.1-.7-.35-.98-.08-.08-.16-.17-.26-.23-.1-.07-.08-.11,0-.18,.21-.2,.33-.45,.47-.7,.12-.23,.17-.47,.19-.71,.04-.47,.03-.95,.04-1.42,.05,.1,.1,.2,.14,.3,.1,.27-.02,.53,0,.8,0,.12,0,.24-.02,.36-.06,.4-.18,.78-.42,1.12-.17,.25-.14,.41,.04,.63,.27,.33,.43,.71,.45,1.13,.02,.63,.04,1.26-.15,1.88-.1,.33-.26,.62-.48,.89-.26,.31-.61,.48-.97,.65-.28,.14-.6,.14-.9,.17Z"/><path class="cls-23" d="M112.31,17.56c-.07-.02-.15-.03-.22-.05-.03-.03-.05-.07-.08-.08-.06-.02-.13-.02-.19-.03-.31-.05-.62-.11-.94-.15-.38-.05-.38-.04-.37-.44,.39,.05,.79,.1,1.18,.16,.36,.05,.73,.1,1.09,.15,.4,.06,.8,.12,1.2,.18,.48,.08,.38,.08,.38,.49,0,.14-.02,.28-.04,.43,0-.11,0-.22,0-.33,0-.08-.04-.11-.12-.12-.15,0-.3-.02-.45-.04-.32-.06-.66-.05-.97-.17-.07,0-.14,0-.21,0-.09,0-.17,0-.26,0Z"/><path class="cls-19" d="M112.65,16.15c.13,0,.26-.03,.39-.02,.16,0,.33,0,.47,.04,.34,.11,.73,.34,.72,.77-.24-.03-.48-.06-.72-.09-.25-.04-.5-.08-.75-.12-.46-.07-.93-.15-1.39-.22-.03,0-.05-.06-.08-.09,.45-.09,.9-.18,1.35-.27Z"/><path class="cls-34" d="M110.38,18.48c.01-.44,.03-.89,.05-1.33,0-.03,.02-.05,.03-.08,0,.16,0,.32,0,.48,0,.08,.01,.1,.1,.11,.34,.04,.67,.11,1.01,.15,.1,.01,.12,.06,.12,.14,0,.12,0,.23,0,.35,0,.07,0,.14-.01,.21-.04,0-.08,.03-.12,.03-.34-.05-.68-.09-1.02-.16-.11-.02-.13,.03-.17,.09Z"/><path class="cls-34" d="M114.29,18.57c-.03,.12-.06,.23-.09,.35-.1-.03-.21-.07-.31-.09-.23-.04-.46-.04-.69-.1-.14-.04-.18,.01-.23,.1,0-.06,0-.12,0-.18,.01-.05,.04-.11,.04-.16,0-.15,0-.31,0-.46,.07,.03,.14,.07,.22,.08,.24,.04,.48,.07,.72,.09,.32,.04,.32,.04,.33,.35Z"/><path class="cls-53" d="M112.18,23.61c-.2,.04-.39,.07-.63,.12,.02-.26,.03-.5,.05-.73,0-.04,0-.09,0-.13,.02-.37,.03-.74,.05-1.11,0-.14,.02-.28,.04-.41,.01-.05,.06-.13,.1-.14,.15-.04,.31-.06,.47-.09-.14,.1-.28,.21-.31,.39-.02,.22-.04,.45-.05,.67,0,.15,0,.31,0,.46,0,.22-.04,.43-.03,.65,0,.22,.11,.31,.3,.32Z"/><path class="cls-11" d="M111.7,18.31c0-.12,0-.23,0-.35,0-.09-.02-.13-.12-.14-.34-.05-.67-.11-1.01-.15-.09-.01-.1-.03-.1-.11,0-.16,0-.32,0-.48,0-.09,0-.17,0-.26,.02-.08,.04-.17,.06-.25,0,.08,0,.16,0,.25-.01,.41-.01,.4,.37,.44,.31,.04,.62,.1,.94,.15,.06,.01,.13,0,.19,.03,.03,.01,.05,.05,.08,.08-.34,.1-.34,.1-.35,.44,0,.12-.02,.24-.04,.36Z"/><path class="cls-40" d="M113.02,18.04c.04-.21-.1-.34-.23-.47,.31,.11,.65,.11,.97,.17,.15,.03,.3,.04,.45,.04,.08,0,.12,.03,.12,.12,0,.11,0,.22,0,.33-.02,.12-.03,.23-.05,.35,0-.32-.01-.32-.33-.35-.24-.03-.48-.06-.72-.09-.08-.01-.15-.06-.22-.08Z"/><path class="cls-73" d="M110.38,18.48c.04-.06,.06-.12,.17-.09,.34,.07,.68,.11,1.02,.16,.04,0,.08-.02,.12-.03-.01,.18-.03,.35-.04,.53-.43-.08-.87-.09-1.27-.26,0-.1,0-.2,0-.31Z"/><path class="cls-6" d="M110.38,18.79c.41,.17,.85,.18,1.27,.26,0,.04,0,.07,0,.11,0,.29-.05,.33-.33,.28-.18-.03-.35-.06-.53-.09-.15-.02-.3-.03-.45-.04,.01-.18,.03-.35,.04-.53Z"/><path class="cls-13" d="M112.66,19.53c.07-.12,.15-.23,.22-.35,.01-.03,.03-.06,.04-.09,.38,.06,.76,.12,1.14,.17-.06,.11-.12,.23-.2,.34-.04,.05-.13,.09-.2,.1-.1,0-.2-.01-.3-.03-.24-.04-.47-.09-.71-.14Z"/><path class="cls-33" d="M114.06,19.27c-.38-.06-.76-.12-1.14-.17,.02-.09,.03-.17,.05-.26,.05-.09,.09-.14,.23-.1,.22,.06,.46,.06,.69,.1,.11,.02,.21,.06,.31,.09-.04,.12-.09,.23-.13,.35Z"/><path class="cls-15" d="M112.18,25.01s-.06,.03-.08,.05c-.03,.03-.06,.06-.09,.09-.03,.03-.07,.08-.1,.08-.16,0-.31,.05-.46,.08-.14,.03-.29,.03-.43,.1-.15-.03-.3-.06-.45-.09,.17-.04,.33-.08,.5-.11,.37-.07,.75-.13,1.13-.2Z"/><path d="M122.31,14.22c.12-.02,.19,.04,.2,.16,.02,.18,.05,.36,.07,.54,.04,.4,.09,.81,.13,1.21,.02,.19,.03,.39,.05,.59,.02,.24,.02,.48,.05,.72,.02,.19,.05,.37,.08,.56,.03,.2,0,.25-.21,.22-.25-.03-.5-.06-.75-.11-.13-.03-.24-.02-.34,.07-.02-.12-.04-.23-.05-.35,0-.08,0-.16,0-.24-.02-.26-.05-.51-.08-.77-.02-.2-.04-.4-.05-.6-.02,0-.03,0-.05,0-.05,.23-.11,.45-.15,.68-.05,.28-.09,.57-.15,.85-.05,.24-.13,.28-.36,.25-.02,0-.04-.01-.06-.02-.18-.03-.36-.11-.53-.09-.17,.02-.16-.07-.21-.15,.02-.12,.05-.24,.07-.36,.02-.04,.04-.08,.04-.12,.17-.81,.35-1.62,.5-2.44,.04-.21,.13-.31,.33-.32,.07,0,.14,0,.22-.02,.3-.06,.6-.12,.89-.18,.12-.03,.25-.04,.38-.07Z"/><path class="cls-69" d="M123.11,20.45c.01,.21,.03,.42,.03,.62,0,.03-.05,.07-.08,.08-.07,0-.14,0-.22-.02-.35-.05-.7-.1-1.05-.15-.31-.05-.63-.1-.94-.14-.38-.06-.76-.11-1.14-.17-.09-.01-.18-.04-.28-.06-.05,0-.09,0-.14,.01,.03-.13,.06-.26,.09-.4,.03-.02,.07-.06,.1-.05,.11,.01,.22,.03,.34,.05,.22,.04,.43,.08,.65,.13,0,.03,0,.08,.01,.08,.05,.02,.11,.03,.17,.03,.01,0,.04-.05,.04-.07-.04-.23,.04-.44,.1-.65,0,.08,0,.17,0,.25,0,.29,.14,.38,.43,.28,.14-.02,.29-.04,.43-.06,0,0,.01,0,.02,.02,0,0,0,.02,0,.02-.09,.03-.19,.05-.28,.08-.03,0-.04,.05-.07,.07,.03,.01,.06,.03,.09,.03,.05,0,.11,0,.17,0,.19,.03,.37,.06,.56,.09,.24,.04,.47,.06,.71,.11,.26,.05,.26,.06,.27-.2Z"/><path class="cls-60" d="M124.07,18.13s.02-.01,.03-.01v.41c.12,0,.21,0,.3,.02,.27,.04,.54,.09,.81,.14,.1,.02,.16-.02,.17-.14,0-.16,.03-.32,.04-.48,.03-.5,.06-1,.09-1.5,.03-.41,.06-.82,.09-1.24,.03-.46,.48-.85,1.03-.75,.04,0,.07,.06,.1,.09-.07,0-.15-.02-.22-.01-.31,.02-.55,.15-.68,.45-.11,.24-.11,.49-.13,.75-.02,.2,0,.41-.02,.61-.04,.67-.08,1.34-.12,2-.01,.03-.04,.06-.04,.09-.02,.45-.03,.9-.05,1.35,0,.06,0,.12,0,.17,0,.19-.01,.37,0,.56,.02,.22,.07,.25,.3,.29,.02,.01,.03,.03,.05,.04-.26,.11-.51-.04-.52-.33-.01-.2,0-.39,0-.59,0-.09,0-.17,0-.26,.02-.12,.04-.24,.04-.36,.01-.21-.02-.24-.22-.25-.08,0-.16-.02-.23-.03-.27-.04-.53-.07-.81-.11v-.56c0-.12,0-.23,0-.35Z"/><path class="cls-42" d="M120.78,19.75c-.05,.21-.14,.42-.1,.65,0,.02-.02,.07-.04,.07-.06,0-.11,0-.17-.03-.01,0,0-.05-.01-.08,.03-.15,.06-.29,.09-.44,.05-.25,.1-.5,.14-.75,.04-.15,.08-.3,.11-.45,.02-.1,0-.15-.13-.16-.28-.02-.55-.07-.83-.1-.1,0-.06-.08-.08-.12,.03-.21,.07-.41,.1-.62,.04,.09,.04,.18,.21,.15,.17-.02,.35,.06,.53,.09,.02,0,.04,.01,.06,.02,.24,.04,.32,0,.36-.25,.06-.28,.09-.57,.15-.85,.04-.23,.1-.45,.15-.68,.02,0,.03,0,.05,0,.02,.2,.04,.4,.05,.6-.03,.05-.07,.09-.08,.14-.11,.48-.21,.96-.31,1.45-.09,.45-.18,.9-.26,1.35Z"/><path class="cls-81" d="M123.97,21.16c-.01-.07-.04-.14-.04-.2,.01-.31,.03-.62,.04-.92,0-.08,0-.16,0-.24,0-.16,0-.32,0-.48,0-.05,.02-.09,.04-.14,0,.12,0,.25,0,.37,0,.08,.03,.11,.12,.12,.11,0,.23,.02,.34,.03,.27,.03,.54,.07,.81,.1,0,.09,0,.17,0,.26-.01,.06-.03,.12-.03,.19,0,.09,0,.17,0,.26,0,.09-.05,.13-.15,.11-.28-.04-.56-.08-.83-.12-.29-.05-.29-.05-.29,.26,0,.13,0,.27,0,.4Z"/><path class="cls-26" d="M120.7,19.18c-.05,.25-.1,.5-.14,.75-.26-.04-.51-.09-.77-.13-.11-.02-.21-.03-.32-.04,0-.26,.06-.51,.17-.75,.02,.02,.04,.07,.06,.07,.07,.01,.14,0,.21,.01,.27,.03,.53,.06,.8,.09Z"/><path class="cls-37" d="M125.29,19.8c-.27-.03-.54-.07-.81-.1-.11-.01-.23-.03-.34-.03-.08,0-.12-.04-.12-.12,0-.12,0-.25,0-.37,.01-.23,.03-.47,.04-.7v.56c.28,.04,.54,.07,.81,.11,.08,.01,.16,.03,.23,.03,.2,.01,.24,.04,.22,.25,0,.12-.03,.24-.04,.36Z"/><path class="cls-52" d="M120.7,19.18c-.27-.03-.53-.06-.8-.09-.07,0-.14,0-.21-.01-.02,0-.04-.05-.06-.07,0-.23,.02-.45,.13-.66,.02,.04-.02,.11,.08,.12,.28,.02,.55,.08,.83,.1,.12,0,.15,.06,.13,.16-.03,.15-.08,.3-.11,.45Z"/><path class="cls-54" d="M119.47,19.76c.11,.01,.21,.02,.32,.04,.26,.04,.51,.09,.77,.13-.03,.15-.06,.29-.09,.44-.22-.04-.43-.09-.65-.13-.11-.02-.22-.04-.34-.05-.03,0-.07,.03-.1,.05l.09-.48Z"/><path d="M115.07,34.71c.03-.21,.07-.42,.08-.63,0-.36-.15-.65-.43-.87-.21-.16-.43-.3-.65-.44-.3-.19-.58-.39-.79-.68-.26-.38-.34-.8-.31-1.25,.04-.77,.25-1.5,.71-2.13,.52-.71,1.23-1.16,2.09-1.35,.74-.16,1.2,.2,1.27,.96,.02,.16,0,.32,.01,.48,0,.06,.03,.12,.04,.18-.01,.01-.02,.02-.03,.03-.09,.12,.01,.29-.15,.41-.12,.09-.25,.17-.38,.24-.01,0-.03,0-.04,.01-.23,.07-.47,.14-.7,.22-.08,0-.13,0-.12-.12,.02-.25,.02-.51,.03-.76-.04-.15-.15-.24-.29-.21-.35,.07-.66,.21-.81,.57-.02,.03-.03,.05-.05,.08-.03,.03-.07,.06-.08,.1-.03,.25-.06,.51-.06,.76,0,.26,.1,.48,.3,.65,.16,.12,.33,.25,.49,.37,.19,.12,.38,.24,.56,.37,.24,.17,.44,.38,.59,.64,.04,.07,.11,.12,.16,.17-.1,.13,.02,.24,.05,.35,0,.07,0,.14,0,.21-.03,.31-.06,.62-.1,.93,0,.05-.05,.1-.09,.13-.29,.15-.58,.3-.87,.45-.12,.06-.23,.13-.34,.19-.08,.04-.08-.02-.1-.07Z"/><path d="M116.96,29.89c.33-.2,.71-.26,1.05-.39,.04-.01,.09-.03,.13-.04,.22-.03,.44-.06,.66-.1,.14-.03,.27-.03,.42,0,.12,.02,.23,0,.35,.08,.16,.09,.29,.2,.41,.33,.05,.13,.11,.27,.16,.4,.09,.61,.07,1.22,.02,1.84-.39,.2-.78,.4-1.16,.6-.17,.09-.34,.2-.51,.29-.51,.27-1.02,.55-1.53,.82,0-.14,0-.28,0-.42,0-1.13,0-2.27,0-3.4Zm1.14,1.82h0c0,.27,0,.54,0,.81,0,.33,0,.34,.32,.26,.14-.04,.29-.05,.4-.17,.16-.16,.24-.36,.24-.58,0-.37,0-.74,0-1.12,0-.06-.01-.13-.03-.19-.05-.22-.15-.3-.38-.26-.14,.03-.28,.09-.42,.11-.12,.02-.14,.09-.14,.2,0,.31,0,.63,0,.94Z"/><path d="M123.72,28.88l.08,.27c0,.25-.03,.51,.02,.75,.05,.27-.06,.39-.27,.49-.28,.13-.55,.28-.83,.42,0-.35,0-.7,0-1.05,0-.3-.17-.42-.46-.36-.24,.05-.4,.19-.51,.41-.1,.1-.09,.24-.1,.37-.01,.35-.02,.7-.04,1.05,0,.05-.05,.12-.1,.15-.31,.19-.63,.36-.95,.54,0-.54,0-1.08-.01-1.62,.02-.12,.03-.23,.05-.35,.22-.78,.72-1.3,1.5-1.54,.44-.14,.88-.2,1.3,.06,.17,.09,.25,.25,.32,.42Z"/><path class="cls-82" d="M127.49,27.61c.03,.07,.07,.14,.1,.21,.01,.04,.02,.09,.03,.13-.06,.15-.21,.19-.32,.27-.2,.14-.46,.18-.63,.37-.01,.01-.06-.02-.1-.02-.13-.24-.25-.29-.51-.22-.21,.06-.36,.19-.45,.39-.03,.1-.07,.2-.09,.3-.01,.09-.02,.15-.11,.19-.23,.12-.45,.26-.68,.38-.13,.06-.24,.13-.3,.26,0-.23,0-.47,0-.7,.01-.09,0-.19,.04-.27,.07-.2,.15-.4,.23-.6h0c.35-.55,.86-.88,1.49-1.03,.49-.11,.96-.09,1.32,.33Z"/><path class="cls-72" d="M128.37,28.35c0-.2,0-.41,0-.61,.4-.23,.8-.47,1.2-.68,.17-.09,.33-.18,.24-.41,.1,.31,.2,.62,.3,.93,.09,.29,.18,.58,.26,.87,.02,.1,.04,.2,.07,.29,.05,.21,.11,.42,.16,.62-.03,.07-.05,.16-.11,.2-.16,.11-.33,.21-.5,.3-.07,.04-.16,.06-.23,.08-.03-.09-.06-.18-.09-.26,.03-.03,.06-.08,.1-.1,.19-.1,.38-.18,.56-.29,.06-.03,.13-.11,.12-.15-.02-.16-.08-.32-.12-.47-.07-.25-.15-.5-.22-.74-.06-.16-.11-.32-.16-.46-.4,.21-.77,.4-1.14,.61-.16,.09-.3,.19-.45,.29Z"/><path class="cls-66" d="M129.82,26.64c.08,.23-.07,.32-.24,.41-.41,.22-.8,.46-1.2,.68,0-.32,0-.64,0-.96,.24-.07,.48-.15,.73-.22,.16-.05,.32-.09,.48-.13,.17-.04,.17-.04,.22,.13,0,.03,.01,.06,.02,.09Z"/><path class="cls-27" d="M131.74,27.09c0,.27,0,.55,0,.82-.07,0-.14,0-.2,.03-.25,.12-.5,.25-.75,.38,0-.26,0-.53,0-.79,.08-.02,.17-.02,.25-.06,.24-.12,.47-.24,.71-.37Z"/><path class="cls-18" d="M131.74,25.84s.02,0,.02,.01c.06,.29,.06,.58,0,.87,0-.03,0-.06,0-.09,0-.09,0-.17,0-.26,0-.14-.05-.17-.18-.11-.16,.07-.3,.17-.46,.24-.16,.07-.3,.14-.25,.35,0,0-.02,.02-.03,.03,0-.27,0-.54,0-.82,.3-.08,.6-.16,.9-.24Z"/><path class="cls-38" d="M131.75,26.64s0,.06,0,.09v.36c-.24,.12-.48,.25-.72,.37-.07,.04-.16,.04-.25,.06,0-.42,0-.84,0-1.26,0-.06,.03-.11,.05-.17,0,.27,0,.54,0,.82,0,.06,0,.11,0,.19,.12-.06,.23-.11,.33-.16,.19-.1,.38-.19,.58-.29Z"/><path class="cls-28" d="M130.79,28.31c.25-.13,.5-.26,.75-.38,.06-.03,.13-.02,.2-.03,0,.09,0,.18,.01,.27,0,.04,0,.09,0,.13-.23,.12-.46,.24-.69,.34-.17,.07-.26,.16-.23,.35,0,.04-.02,.09-.03,.14v-.79s0-.03,0-.04Z"/><path class="cls-48" d="M116.48,29.67s.03-.01,.04-.01c-.01,0-.03,0-.04,.01Z"/><path class="cls-30" d="M123.32,22.78c.1-.04,.15-.1,.14-.23-.04-.33-.06-.66-.09-1-.03-.35-.06-.69-.1-1.04-.04-.37-.08-.73-.12-1.1-.03-.32-.06-.65-.1-.97-.04-.4-.09-.79-.12-1.19-.01-.13,0-.26,0-.39,.01,.02,.04,.03,.04,.05,.05,.26,.09,.52,.14,.78,.02,.13,.06,.27,.09,.4-.02,.48,.11,.94,.14,1.41,.02,.28,.08,.56,.12,.84,.03,.26,.06,.52,.09,.79,.03,.26,.07,.52,.1,.78,.02,.17,.04,.33,.02,.5-.01,.22-.17,.38-.35,.39Z"/><path class="cls-74" d="M121.65,20.22c.12-.27,.35-.18,.54-.15,.24,.03,.47,.06,.7,.13,.16,.04,.17-.03,.17-.14,.01,.13,.03,.26,.04,.4-.01,.26,0,.25-.27,.2-.23-.05-.47-.07-.71-.11-.19-.03-.37-.06-.56-.09-.05,0-.11,0-.17,0-.03,0-.06-.02-.09-.03,.02-.03,.04-.07,.07-.07,.09-.03,.19-.05,.28-.08,0,0,0-.01,0-.02,0,0-.01-.01-.02-.02Z"/><path class="cls-79" d="M121.62,18.83c0-.09,0-.17,0-.26,.13-.08,.26-.03,.4,0,.23,.04,.47,.07,.7,.11,.16,.03,.25,.15,.26,.31,0,.06,0,.13,0,.2-.36-.06-.72-.12-1.08-.16-.14-.02-.24-.04-.27-.19Z"/><path class="cls-39" d="M121.62,18.83c.03,.15,.13,.18,.27,.19,.36,.04,.72,.11,1.08,.16,.03,.15,.06,.31,.08,.46,.01,.08,0,.16,0,.24,0,0-.01,0-.02-.02-.02-.08-.01-.2-.06-.22-.1-.05-.22-.06-.33-.07-.28-.04-.56-.08-.83-.13-.06-.01-.11-.06-.16-.09-.02-.14-.03-.29-.05-.43,0-.03,0-.06,.01-.09Z"/><path class="cls-14" d="M121,21.68c-.41,.11-.46,.46-.53,.8-.05,.24-.04,.5-.2,.7-.07,.08-.15,.15-.23,.22,.02-.12,.04-.24,.06-.36,.06-.32,.14-.63,.19-.95,.04-.22,.08-.3,.3-.35,.13-.03,.27-.04,.41-.06Z"/><path class="cls-67" d="M118.62,22.35c.06,.06,.13,.12,.19,.18,0,0,.05-.04,.07-.06,0,.08-.01,.16-.03,.23-.06,.24-.12,.48-.18,.73-.04,.17-.01,.21,.17,.23-.06,.01-.12,.03-.17,.04-.05,.01-.09,.03-.14,.04,.02-.09,.04-.17,.05-.26,.02-.38,.03-.76,.04-1.13Z"/><path class="cls-56" d="M118.62,22.35c-.01,.38-.03,.76-.04,1.13,0,.09-.03,.17-.05,.26-.48,.09-.96,.18-1.43,.28-.52,.1-1.04,.2-1.56,.3-.03,0-.05,.02-.07,.04-.16,.03-.32,.06-.48,.09-.08,0-.09-.05-.09-.11,0-.16,0-.33,.01-.49,0-.05,.03-.1,.03-.15,.03-.55,.06-1.11,.09-1.66,.02-.29,.03-.58,.04-.87,.03-.37,.06-.73,.09-1.1,.05,.03,.1,.08,.15,.08,.41,.05,.81,.22,1.26,.11v.64c0,.2,0,.39,0,.59-.02,.34-.05,.68-.07,1.02,0,.04,0,.09,0,.13,.01,.03,.06,.08,.08,.08,.22-.03,.44-.07,.66-.11,.06-.02,.12-.03,.17-.05,.18-.04,.36-.08,.54-.11,.23-.04,.45-.07,.68-.11Z"/><path d="M115.33,17.07c.02-.37,.04-.74,.05-1.11,0-.09,0-.17,0-.26,0-.1,.03-.15,.13-.16,.05,0,.1,0,.15-.02,.29-.05,.57-.11,.86-.16,.22,.01,.22,.01,.22,.23,0,.29-.02,.58-.04,.87-.02,.26-.05,.52-.08,.77-.02,.15-.05,.16-.2,.13-.3-.05-.6-.11-.9-.13-.15,0-.19-.05-.18-.17Z"/><path class="cls-45" d="M115.33,17.07c0,.13,.03,.17,.18,.17,.3,.01,.6,.08,.9,.13,.15,.02,.18,.02,.2-.13,.04-.26,.06-.52,.08-.77,.02-.29,.04-.58,.04-.87,0-.22,0-.22-.22-.23,.11-.03,.23-.05,.34-.08,0,.28,0,.55,0,.83-.01,.03-.04,.06-.04,.1-.02,.36-.03,.71-.05,1.07-.02,.37-.03,.74-.05,1.11,0,.03-.02,.06-.04,.1,.02-.12-.04-.12-.13-.09,0-.12,0-.23,0-.35,0-.13-.05-.17-.18-.18-.26-.02-.51-.05-.77-.1-.13-.03-.25-.04-.37,.02,.03-.24,.05-.47,.08-.71Z"/><path class="cls-41" d="M115.21,19.14c.02-.29,.03-.59,.05-.88,.06,.02,.12,.04,.19,.05,.25,.04,.5,.08,.74,.12,.11,.02,.26,0,.31,.08,.06,.08,.02,.22,.03,.34,0,.11,0,.23-.01,.34-.05,.05-.04,.16-.16,.13-.12-.03-.25-.05-.38-.07-.26-.04-.51-.07-.77-.1Z"/><path class="cls-47" d="M115.21,19.14c.26,.03,.51,.06,.77,.1,.13,.02,.25,.04,.38,.07,.12,.03,.11-.08,.16-.13l-.04,.7c-.42-.06-.84-.11-1.25-.17-.02,.05-.04,.11-.06,.17,.01-.25,.03-.5,.04-.75Z"/><path class="cls-35" d="M116.53,18.83c0-.12,.03-.26-.03-.34-.05-.07-.2-.06-.31-.08-.25-.04-.5-.08-.74-.12-.06-.01-.13-.03-.19-.05v-.48c.12-.06,.24-.04,.37-.02,.25,.05,.51,.08,.77,.1,.13,.01,.18,.06,.18,.18,0,.12,0,.23,0,.35-.01,.15-.03,.29-.04,.44Z"/><path class="cls-45" d="M115.16,19.88c.02-.06,.04-.12,.06-.17,.41,.05,.83,.11,1.25,.17,0,.08,0,.16,.13,.13,0-.15,0-.31,0-.46,0-.07,.03-.13,.04-.2-.02,.48-.03,.96-.05,1.44,0,.03-.03,.06-.04,.1v-.64c-.45,.11-.85-.06-1.26-.11-.05,0-.1-.05-.15-.08,0-.06,0-.12,0-.17Z"/><path class="cls-56" d="M123.86,33.45c-.02,.14-.02,.29-.06,.42-.08,.31-.2,.59-.42,.83-.44,.5-1,.74-1.66,.79-.5,.04-.87-.18-1.07-.65,.09-.03,.18-.04,.26-.08,.21-.11,.41-.23,.62-.34,.08-.04,.12-.09,.12-.18,0-.03,.02-.06,.04-.09,.14,.24,.27,.3,.53,.21,.29-.1,.45-.3,.48-.6,.01-.06,.03-.12,.04-.18,.21,.03,.35-.11,.52-.19,.1-.05,.2-.1,.29-.15,.09-.05,.17-.12,.28-.2,0,.16,.01,.29,.02,.42Z"/><path class="cls-5" d="M123.86,33.45c0-.13-.01-.26-.02-.42-.11,.08-.19,.14-.28,.2-.09,.06-.19,.11-.29,.15-.17,.08-.31,.22-.52,.19,0-.19,0-.38,0-.57,0-.07,.01-.11,.09-.14,.27-.12,.53-.26,.8-.38,.13-.06,.16-.14,.15-.27,0-.29,0-.58,0-.87,0-.09,0-.19,0-.28,0-.17-.04-.19-.19-.11-.28,.16-.57,.31-.86,.47-.01-.12-.03-.23-.04-.35,0-.09,0-.18,0-.26,.28-.14,.55-.29,.83-.42,.21-.1,.33-.22,.27-.49-.05-.24-.01-.5-.02-.75,.03,.17,.08,.35,.08,.52,0,1,0,2,0,3,0,.19,0,.38,0,.57,0,.07-.02,.14-.03,.21Z"/><path class="cls-75" d="M116.97,34.14c0-.15,0-.29,0-.44,.51-.27,1.02-.54,1.53-.82,.17-.09,.33-.2,.51-.29,.39-.2,.77-.4,1.16-.6,0,.09,0,.17-.01,.26-.07,.16-.14,.33-.21,.49-.03-.05-.06-.11-.1-.19-.49,.27-.98,.53-1.46,.8-.47,.26-.95,.53-1.42,.79Z"/><path class="cls-44" d="M120.55,30.28c0,.54,0,1.08,.01,1.62,0,.18,0,.35,0,.53v.54c.35-.24,.74-.35,1.04-.62,0,.41,0,.81,0,1.22-.06,0-.13-.03-.18,0-.2,.09-.38,.22-.58,.3-.23,.09-.33,.23-.3,.47-.01-.08-.03-.15-.03-.23,0-.5,0-.99,0-1.49,0-.7,0-1.4,0-2.1,0-.08,.02-.15,.04-.23Z"/><path class="cls-31" d="M121.61,33.57c0-.41,0-.81,0-1.22v-.51c-.36,.2-.7,.4-1.04,.59,0-.18,0-.35,0-.53,.32-.18,.63-.36,.95-.54,.05-.03,.09-.09,.1-.15,.02-.35,.03-.7,.04-1.05,0-.13,0-.26,.1-.37-.02,.25-.04,.51-.05,.76,0,.38,0,.76,0,1.14,0,.82,0,1.63,0,2.45-.01,.03-.04,.06-.04,.09,0,.09-.04,.14-.12,.18-.21,.11-.41,.24-.62,.34-.08,.04-.17,.05-.26,.08-.02-.07-.04-.14-.05-.22,.03-.04,.05-.09,.09-.11,.16-.09,.33-.17,.5-.25,.14-.07,.33-.11,.4-.23,.07-.12,.02-.31,.02-.47Z"/><path class="cls-4" d="M121.61,33.57c0,.16,.05,.35-.02,.47-.07,.12-.26,.16-.4,.23-.17,.09-.34,.16-.5,.25-.04,.02-.06,.07-.09,.11-.02-.1-.03-.2-.05-.31-.03-.24,.06-.38,.3-.47,.2-.07,.38-.2,.58-.3,.05-.02,.12,0,.18,0Z"/><path class="cls-56" d="M130.61,29.36c.03,.09,.06,.17,.09,.26-.02,.1,0,.19,.13,.29,0-.19,0-.34,0-.49,0-.1,.02-.16,.13-.19,.14-.05,.28-.13,.41-.2,.38-.21,.38-.21,.38-.65,0-.02,0-.04,0-.07,0-.04,0-.09,0-.13,.01,.08,.04,.15,.04,.23,0,1.35,0,2.7,0,4.05,0,.08,0,.16,0,.24-.02,.02-.03,.03-.05,.05-.31,.08-.62,.17-.93,.25-.11,.02-.17,0-.2-.12-.27-.96-.56-1.91-.83-2.87,0-.02,0-.04,0-.06,.08-.03,.16-.04,.23-.08,.17-.09,.34-.19,.5-.3,.05-.04,.07-.13,.11-.2Z"/><path class="cls-56" d="M129.37,29.89c0,1.15,0,2.3,0,3.45-.11,.08-.25,.1-.37,.15-.18,.07-.36,.09-.54,.13-.03-.03-.09-.06-.09-.09-.01-.09,0-.17,0-.26,0-.91,0-1.82,0-2.73,.08-.02,.17-.03,.25-.06,.12-.06,.24-.13,.36-.2,.15-.08,.31-.15,.34-.35,0-.01,.03-.03,.05-.04Z"/><path class="cls-22" d="M130.34,28.66c.04,.16,.1,.31,.12,.47,0,.05-.07,.12-.12,.15-.18,.1-.38,.19-.56,.29-.04,.02-.07,.06-.1,.1-.01-.03-.03-.06-.04-.09-.02-.1-.02-.22-.07-.31-.08-.14,0-.18,.1-.24,.17-.08,.34-.16,.5-.25,.06-.03,.11-.08,.17-.13Z"/><path class="cls-77" d="M116.57,33.09c.08,.31,0,.62-.03,.93,0,.03,0,.06,0,.09-.09,.26-.18,.53-.27,.79-.03-.05-.06-.1-.08-.15-.34,.18-.67,.36-1.01,.53-.29,.15-.57,.31-.86,.47-.42,.23-.84,.47-1.27,.67-.14,.07-.25,.12-.3,.27-.13-.12-.2-.26-.22-.44,.02,0,.04,0,.06,.01,.05-.2,.25-.21,.38-.3,.25-.15,.53-.27,.79-.41,.08-.04,.12-.06,.05-.16-.03-.05-.02-.14-.02-.21,.01,.04,.03,.08,.05,.12,.07,.15,.18,.21,.34,.17,.35-.09,.63-.26,.79-.6,.03-.06,.06-.11,.09-.17,.01,.05,.02,.11,.1,.07,.11-.06,.23-.13,.34-.19,.29-.15,.58-.29,.87-.45,.04-.02,.09-.08,.09-.13,.04-.31,.07-.62,.1-.93Z"/><path class="cls-76" d="M112.75,36.69c.05-.14,.16-.2,.3-.27,.43-.21,.85-.45,1.27-.67,.29-.15,.57-.31,.86-.47,.33-.18,.67-.35,1.01-.53,.02,.05,.05,.1,.08,.15-.24,.66-.69,1.16-1.27,1.54,0-.02-.02-.06-.01-.06,.09-.07,.18-.14,.27-.21,.26-.21,.47-.46,.63-.76-.11,.02-.21,.06-.31,.11-.11,.06-.21,.13-.32,.19-.35,.19-.7,.38-1.05,.56-.29,.15-.57,.31-.87,.46-.17,.08-.17,.07-.16,.24-.18-.03-.33-.11-.43-.27Z"/><path class="cls-58" d="M113.18,36.96c-.01-.17,0-.16,.16-.24,.29-.15,.58-.31,.87-.46,.35-.19,.7-.37,1.05-.56,.11-.06,.21-.13,.32-.19,.09-.05,.19-.08,.31-.11-.16,.3-.37,.55-.63,.76-.09,.07-.19,.14-.27,.21,0,0,0,.04,.01,.06-.5,.33-1.03,.58-1.65,.56-.05,0-.11-.02-.16-.04Z"/><path class="cls-27" d="M116.96,35.73c0-.22,0-.44,0-.66,.35-.2,.7-.41,1.05-.61,0,.29,0,.58,0,.87-.08,.02-.17,.03-.25,.06-.21,.1-.41,.21-.6,.34-.08,.05-.13,.04-.2,0Z"/><path class="cls-8" d="M116.96,35.73c.07,.03,.12,.05,.2,0,.19-.12,.4-.23,.6-.34,.07-.04,.16-.04,.25-.06,0,.01,0,.03,0,.04,.03,.27,0,.49-.32,.57-.17,.04-.32,.17-.48,.25-.08,.04-.16,.04-.25,.06,0-.18,0-.35,0-.53Z"/><path class="cls-36" d="M118.01,34.45c-.35,.2-.7,.41-1.05,.61,0-.15,0-.29,0-.44,.33-.21,.66-.41,1.05-.65,0,.2,0,.34,0,.48Z"/><path class="cls-57" d="M128.37,28.35c.15-.1,.29-.2,.45-.29,.37-.2,.74-.4,1.14-.61,.05,.14,.11,.3,.16,.46-.58,.32-1.17,.63-1.75,.95v-.51Z"/><path class="cls-84" d="M129.37,29.89s-.05,.02-.05,.04c-.03,.2-.19,.27-.34,.35-.12,.06-.24,.14-.36,.2-.08,.04-.16,.04-.25,.06,0-.18,0-.35,0-.53,.19-.09,.37-.2,.57-.26,.3-.09,.41-.28,.35-.58v-.71s.04,0,.06,0c.02,.11,.07,.21,.07,.32,0,.36-.02,.71-.04,1.07,0,.01,0,.03,0,.04Z"/><path class="cls-49" d="M129.29,29.18c.06,.3-.04,.48-.35,.58-.2,.06-.38,.17-.57,.26,0-.01,0-.03,0-.04-.05-.28,.01-.48,.33-.55,.09-.02,.16-.1,.24-.13,.11-.05,.23-.08,.34-.11Z"/><path d="M130.65,15.54c.12-.25,.23-.5,.35-.74,.23-.47,.47-.95,.7-1.42,.14-.29,.3-.58,.43-.89,.09-.22,.24-.32,.46-.32,.26-.04,.51-.08,.77-.11,.04,0,.09,.01,.14,.02-.01,.04-.02,.08-.04,.12-.08,.15-.18,.3-.25,.46-.14,.3-.27,.61-.42,.91-.23,.49-.47,.97-.71,1.45-.07,.14-.13,.29-.2,.43-.13,.25-.26,.5-.38,.75-.03,.06-.02,.16,0,.23,.16,.46,.32,.91,.48,1.37,.14,.39,.27,.79,.41,1.18,.07,.21,.15,.42,.22,.63,.05,.16,.03,.19-.14,.19-.04,0-.07,0-.11,0-.17-.03-.34-.09-.51-.11-.23-.02-.45-.11-.69-.02,0,0-.01,0-.01,0-.1-.31-.2-.62-.3-.93-.03-.1-.07-.2-.1-.3-.03-.1-.06-.2-.09-.3-.02-.06-.03-.13-.06-.18-.05-.1-.09-.1-.15,0-.04,.07-.06,.15-.1,.21-.2,.3-.33,.62-.3,1,.01,.19-.04,.23-.23,.2-.36-.04-.71-.09-1.07-.14,0-.01-.01-.03-.02-.04,0-.19,.02-.38,.03-.56,.03-.63,.07-1.26,.1-1.89,.03-.37,.06-.74,.08-1.11,.05-.85,.1-1.7,.15-2.55,.01-.18-.03-.22,.23-.26,.29-.05,.57-.11,.86-.16,.24,.02,.24,.02,.23,.26-.03,.53-.06,1.06-.09,1.59-.02,.38-.03,.77-.05,1.16,0,.06-.02,.11-.02,.17-.02,.14-.04,.28,.06,.42,.11-.23,.21-.47,.32-.7Z"/><path class="cls-16" d="M131.18,19.66c.23-.09,.46,0,.69,.02,.17,.02,.34,.07,.51,.11,.04,0,.07,0,.11,0,.17,0,.19-.03,.14-.19-.07-.21-.15-.42-.22-.63-.14-.39-.27-.79-.41-1.18-.16-.46-.33-.91-.48-1.37-.02-.07-.04-.17,0-.23,.12-.26,.25-.5,.38-.75,.07-.14,.13-.29,.2-.43,.24-.48,.47-.97,.71-1.45,.14-.3,.27-.61,.42-.91,.07-.16,.17-.3,.25-.46,.02-.04,.02-.08,.04-.12-.05,0-.09-.03-.14-.02-.26,.03-.51,.08-.77,.11,.36-.07,.71-.15,1.07-.22,.02,0,.06,.03,.09,.04-.06,.13-.12,.26-.19,.4-.08,.15-.16,.31-.24,.46-.48,.99-.96,1.97-1.43,2.96-.23,.29-.26,.58-.11,.93,.19,.45,.34,.91,.5,1.37,.15,.43,.3,.86,.45,1.29,.14,.4,.27,.79,.42,1.19,.05,.13,.04,.22-.11,.27-.09,.02-.17,.03-.26,.05-.27,.06-.54,.11-.8,.17-.06,0-.11,0-.17,0l-.06-.02s.03-.06,.05-.06c.28-.06,.56-.12,.85-.18,.13-.02,.25-.04,.38-.07-.05-.23-.13-.4-.38-.43-.3-.03-.6-.09-.9-.12-.11-.01-.23,.03-.34,.04-.09-.19-.21-.36-.21-.58Z"/><path class="cls-50" d="M124.33,22.03c-.08-.13-.14-.28-.23-.4-.07-.1-.07-.19-.07-.3,.01-.05-.02-.15,.09-.09,.04,.02,.09,.03,.14,.04,.26,.04,.53,.06,.79,.1,.32,.05,.64,.11,.96,.16,.26,.04,.53,.06,.79,.1,.23,.04,.41-.05,.51-.28,.07-.1,.14-.21,.22-.31,.12-.22,.25-.44,.27-.7,.03-.15,.07-.29,.08-.44,.02-.32,0-.32-.31-.35-.26-.03-.52-.06-.77-.09-.04,0-.07-.06-.1-.09,0-.2,0-.4,.01-.6,.01,0,.02,0,.04,0,0,.06,.01,.13,.01,.16,.16,.01,.3,.02,.45,.04,.18,.03,.35,.07,.53,.1,.14,.02,.22-.05,.23-.19,0-.08,0-.16,0-.24,0-.09,0-.14-.12-.1-.07,.02-.16,0-.24,0,.12-.03,.24-.06,.36-.09,.14-.02,.19,.04,.17,.18,0,.03,0,.06,0,.09-.01,.06-.04,.12-.04,.19,0,.45-.02,.9-.09,1.35-.06,.34-.19,.66-.37,.94-.21,.33-.49,.63-.86,.81-.11,.05-.21,.12-.31,.19-.38,.13-.78,.21-1.18,.22-.11-.02-.23-.02-.33-.06-.19-.07-.36-.16-.55-.25-.03-.03-.06-.06-.09-.09Z"/><path class="cls-61" d="M128.59,21.47s.03-.08,.03-.12c.02-.44,.03-.88,.05-1.32,0-.08,.02-.15,.03-.23,0,.1,.01,.2,0,.3,0,.11,.03,.17,.15,.19,.32,.05,.64,.12,.96,.17,.1,.01,.12,.06,.12,.14,0,.17,0,.35,0,.52-.02,.09,.05,.23-.13,.26-.36,.06-.71,.12-1.07,.17-.1,.01-.12,.05-.12,.14-.01,0-.03,0-.04,0,0-.07,0-.14,0-.21Z"/><path class="cls-12" d="M131.39,20.24c.11-.02,.23-.05,.34-.04,.3,.03,.6,.09,.9,.12,.25,.03,.33,.2,.38,.43-.13,.02-.25,.04-.38,.07-.28,.06-.57,.11-.85,.18-.02,0-.03,.04-.05,.06,.02,0,.04,.01,.06,.02,0,.01,0,.02,0,.04-.04-.02-.12-.04-.13-.07-.1-.26-.18-.53-.27-.79Z"/><path d="M126.74,14.67s-.06-.09-.1-.09c-.55-.1-1,.29-1.03,.75-.03,.41-.06,.82-.09,1.24-.03,.5-.06,1-.09,1.5,0,.16-.03,.32-.04,.48,0,.12-.07,.15-.17,.14-.27-.04-.54-.09-.81-.14-.09-.01-.18-.01-.3-.02v-.41c.05-.82,.08-1.65,.15-2.47,.05-.6,.29-1.14,.69-1.6,.37-.33,.77-.6,1.27-.7,.28-.01,.57-.02,.85-.04,.36-.03,.61,.17,.81,.42,.23,.28,.34,.62,.32,.99-.01,.33-.05,.67-.03,1,.01,.25-.08,.31-.31,.33-.31,.03-.61,.11-.94,.18v-1.21c0-.15-.06-.26-.18-.34Z"/><path class="cls-1" d="M130.65,15.54c-.11,.23-.21,.47-.32,.7-.1-.15-.08-.28-.06-.42,0-.06,.02-.11,.02-.17,.02-.38,.03-.77,.05-1.16,.03-.53,.06-1.06,.09-1.59,.01-.24,.01-.24-.23-.26,.13-.03,.27-.05,.4-.08-.03,.52-.05,1.03-.08,1.55-.02,.44-.04,.89-.05,1.33,0,.15,0,.15,.17,.09Z"/><path class="cls-10" d="M125.82,20.98c.14,.03,.24-.06,.35-.13,.06-.03,.12-.06,.18-.09,.22,.04,.43,.09,.65,.12,.19,.03,.39,.03,.53,.18-.07,.1-.14,.21-.22,.31-.29-.06-.58-.13-.87-.17-.16-.03-.33-.02-.49-.02-.03,0-.06,0-.08,0-.24-.15-.52-.12-.77-.18-.24-.06-.49-.06-.73-.1-.13-.02-.26-.08-.38-.13,0-.31,0-.31,.29-.26,.28,.04,.56,.08,.83,.12,.09,.01,.14-.02,.15-.11,0-.09,0-.17,0-.26,0-.06,.02-.12,.03-.19,0,.2,0,.39,0,.59,.02,.29,.26,.44,.52,.33Z"/><path class="cls-7" d="M123.98,20.76c.13,.04,.25,.1,.38,.13,.24,.04,.49,.04,.73,.1,.26,.07,.54,.03,.77,.18,.02,.01,.05,0,.08,0,.16,0,.33,0,.49,.02,.29,.05,.58,.11,.87,.17-.1,.23-.28,.32-.51,.28-.26-.04-.53-.06-.79-.1-.32-.05-.64-.11-.96-.16-.26-.04-.53-.07-.79-.1-.05,0-.1-.02-.14-.04-.12-.06-.08,.04-.09,.09,0,0-.02,0-.03,0,0-.05-.01-.11-.02-.16,0-.13,0-.27,0-.4Z"/><path class="cls-3" d="M115.69,29.01s-.05,.08-.05,.12c.02,.15-.05,.21-.19,.2-.03,0-.05,.01-.08,.02-.22,.02-.43,.03-.65,.05-.04-.01-.09-.03-.13-.04,.15-.36,.46-.5,.81-.57,.13-.03,.24,.06,.29,.21Z"/><path class="cls-59" d="M125.6,28.75c-.01,.6-.04,1.21-.04,1.81,0,.82,0,1.63,0,2.45-.02-.12-.04-.24-.04-.36,0-.36,0-.36-.32-.19-.19,.1-.37,.2-.56,.28-.06,.02-.13,0-.2,0,0-.1,0-.2,0-.31,.21,.02,.37-.11,.54-.19,.52-.25,.52-.26,.5-.82,0-.36,0-.73,0-1.09v-.56c-.22,.11-.43,.21-.63,.33-.14,.08-.28,.18-.42,.27,0-.16,0-.32,0-.48,.06-.13,.17-.2,.3-.26,.23-.12,.45-.26,.68-.38,.08-.05,.1-.11,.11-.19,.01-.1,.06-.2,.09-.3Z"/><path class="cls-27" d="M124.43,32.44c0,.1,0,.2,0,.31,0,.2,0,.41-.01,.61-.01-.05-.04-.11-.04-.16,0-1.28,0-2.55,0-3.83,0-.06,.03-.12,.04-.18,0,.23,0,.47,0,.7,0,.16,0,.32,0,.48v.67c.02-.15,.13-.2,.24-.26,.27-.14,.53-.29,.8-.44,0,.36,0,.73,0,1.09-.08,.02-.17,.03-.25,.07-.14,.07-.28,.16-.42,.23-.12,.06-.31,.09-.36,.18-.06,.12-.02,.3-.02,.45,0,.03,0,.06,0,.09Z"/><path class="cls-64" d="M126.57,28.66s0-.06,0-.09c.03,0,.09,.04,.1,.02,.17-.19,.43-.23,.63-.37,.12-.08,.27-.12,.32-.27l.09,.34c0,.07,0,.15,0,.22,0,.88,0,1.76,0,2.64-.26,.13-.51,.26-.77,.4-.11,.06-.2,.12-.32,.04,0-.09,0-.17,0-.26,.08,.05,.15,.04,.22,0,.11-.07,.22-.13,.34-.19,.49-.25,.51-.17,.48-.82,0-.36,0-.73,0-1.09v-.56c-.08,.04-.15,.06-.21,.1-.28,.15-.56,.3-.83,.46-.02-.19-.03-.38-.05-.57Z"/><path class="cls-56" d="M126.62,31.6c.12,.08,.21,.02,.32-.04,.25-.14,.51-.27,.77-.4,0,.08,0,.16,0,.24-.01,.45-.03,.9-.04,1.34-.15,.76-.62,1.25-1.33,1.53-.29,.12-.6,.18-.92,.17-.44-.02-.76-.26-.9-.67-.05-.13-.07-.28-.1-.41,0-.2,0-.41,.01-.61,.07,0,.15,.02,.2,0,.19-.08,.38-.18,.56-.28,.32-.17,.32-.17,.32,.19,0,.12,.03,.24,.04,.36,.13,.37,.49,.44,.79,.15,.13-.12,.21-.27,.22-.46,.01-.07,.03-.14,.03-.21,0-.3,0-.59,.01-.89Z"/><path class="cls-65" d="M127.67,32.75c.01-.45,.03-.9,.04-1.34,0-.08,0-.16,0-.24,0-.88,0-1.76,0-2.64,0-.07,0-.15,0-.22,.01,.08,.04,.17,.04,.25,0,1.23,0,2.45,0,3.68,0,.17-.05,.34-.08,.51Z"/><path class="cls-29" d="M131.75,26.64c-.19,.1-.38,.19-.58,.29-.1,.05-.2,.1-.33,.16,0-.08,0-.14,0-.19,0-.01,.03-.02,.03-.03-.04-.21,.1-.28,.25-.35,.16-.07,.3-.17,.46-.24,.13-.06,.17-.03,.18,.11,0,.09,0,.17,0,.26Z"/><path class="cls-29" d="M131.75,28.31s0,.04,0,.07c0,.44,0,.44-.38,.65-.13,.07-.27,.15-.41,.2-.11,.04-.13,.1-.13,.19,0,.15,0,.3,0,.49-.13-.1-.14-.19-.13-.29,.02,.02,.03,.04,.09,.1v-.58s.04-.1,.03-.14c-.03-.19,.06-.28,.23-.35,.24-.1,.46-.23,.69-.34Z"/><path class="cls-46" d="M116.87,16.11c.01,.23,.03,.46,.04,.7,0,.09-.03,.17-.04,.26-.02,.54,.01,1.09,0,1.63,0,.23-.06,.46-.03,.68,.03,.26-.09,.51-.06,.77,.03,.19,.04,.39,.04,.59,0,.15-.03,.3-.04,.45,0,.32,0,.64,0,.96,0,.4,.05,.46,.44,.46-.22,.04-.44,.08-.66,.11-.02,0-.07-.05-.08-.08-.01-.04,0-.09,0-.13,.02-.34,.06-.68,.07-1.02,.01-.2,0-.39,0-.59,.01-.03,.04-.06,.04-.1,.02-.48,.03-.96,.05-1.44,.01-.29,.03-.58,.04-.87,.01-.03,.04-.06,.04-.1,.02-.37,.03-.74,.05-1.11,.02-.36,.03-.71,.05-1.07,0-.03,.02-.06,.04-.1Z"/><path class="cls-56" d="M116.7,18.48c-.01,.29-.03,.58-.04,.87-.02,.07-.04,.13-.04,.2,0,.15,0,.3,0,.46-.13,.03-.13-.06-.13-.13l.04-.7c0-.11,0-.23,.01-.34,.01-.15,.03-.29,.04-.44,.08-.03,.15-.03,.13,.09Z"/><path class="cls-70" d="M122.71,33.75c0-.76,0-1.51,0-2.27,0-.14,0-.28,0-.41,.01,.12,.03,.23,.04,.35v.43c.28-.15,.53-.29,.78-.42,.08-.04,.17-.06,.26-.09,0,.29,0,.58,0,.87,0,.13-.02,.21-.15,.27-.27,.12-.53,.27-.8,.38-.08,.03-.09,.07-.09,.14,0,.19,0,.38,0,.57-.01,.06-.03,.12-.04,.18Z"/><path class="cls-80" d="M123.8,31.34c-.09,.03-.18,.05-.26,.09-.26,.13-.51,.27-.78,.42v-.43c.29-.16,.57-.31,.86-.47,.15-.08,.19-.07,.19,.11,0,.09,0,.19,0,.28Z"/><path class="cls-4" d="M120.57,32.43c.34-.19,.68-.39,1.04-.59v.51c-.3,.27-.7,.37-1.04,.62v-.54Z"/><path class="cls-3" d="M129.16,21.63c-.17,.02-.35,.03-.52,.05,0-.08,.03-.12,.12-.14,.36-.05,.71-.12,1.07-.17,.17-.03,.1-.16,.13-.26,.01-.39,.03-.78,.03-1.17,0-.03-.06-.07-.1-.08-.24-.04-.48-.09-.73-.11-.4-.04-.4-.03-.39-.43,0-.04,0-.07,0-.11,.36,.05,.71,.1,1.07,.14,.19,.02,.25-.02,.23-.2-.03-.37,.1-.69,.3-1,.04-.07,.06-.14,.1-.21,.05-.09,.1-.09,.15,0,.03,.06,.04,.12,.06,.18-.04,0-.1-.01-.11,0-.11,.22-.27,.43-.31,.66-.07,.46-.07,.94-.1,1.41-.03,.4-.06,.81-.09,1.21-.06,.02-.13,.03-.19,.05-.24,.05-.49,.11-.73,.16Z"/><path class="cls-68" d="M128.77,19.22s0,.07,0,.11c0,.4,0,.39,.39,.43,.24,.02,.49,.07,.73,.11,.04,0,.1,.05,.1,.08,0,.39-.02,.78-.03,1.17,0-.17,0-.35,0-.52,0-.08-.02-.13-.12-.14-.32-.05-.64-.12-.96-.17-.12-.02-.16-.08-.15-.19,0-.1,0-.2,0-.3,.02-.2,.03-.41,.05-.61,0,.01,.01,.03,.02,.04Z"/><path class="cls-51" d="M126.57,20.41c.03-.17,.06-.35,.09-.52,.01,.22,.03,.24,.18,.26,.28,.03,.56,.07,.84,.09,.1,0,.12,.06,.12,.14-.02,.26-.15,.47-.27,.7-.14-.16-.34-.16-.53-.18-.22-.03-.43-.08-.65-.12,.07-.12,.15-.23,.22-.35Z"/><path class="cls-43" d="M127.8,20.37c0-.08-.02-.13-.12-.14-.28-.02-.56-.06-.84-.09-.15-.02-.17-.04-.18-.26,.01-.16,.03-.32,.04-.49,.03,.03,.07,.08,.1,.09,.26,.04,.52,.06,.77,.09,.32,.03,.32,.03,.31,.35,0,.15-.05,.29-.08,.44Z"/><path class="cls-21" d="M126.75,18.79s.04-.07,.07-.07c.27-.06,.53-.1,.8-.16,.08,0,.17,.01,.24,0,.12-.04,.12,.02,.12,.1,0,.08,0,.16,0,.24-.01,.14-.09,.21-.23,.19-.18-.03-.35-.07-.53-.1-.14-.02-.29-.03-.45-.04,0-.04,0-.1-.01-.16Z"/><path class="cls-20" d="M126.92,16.36c-.01-.05-.03-.11-.04-.16,.01-.15,.03-.3,.04-.45v.48c.33-.07,.63-.15,.94-.18,.23-.02,.32-.08,.31-.33-.01-.33,.02-.67,.03-1,.01-.37-.1-.71-.32-.99-.2-.25-.45-.45-.81-.42-.28,.02-.56,.03-.85,.04,.52-.18,1.03-.19,1.52,.08,.26,.14,.42,.39,.52,.68,.15,.45,.13,.9,.11,1.36,0,.14-.02,.28-.04,.41-.01,.19-.03,.2-.21,.24-.34,.06-.67,.12-1.01,.18-.02,0-.04,.02-.06,.03-.04,.01-.08,.02-.12,.04Z"/><path class="cls-9" d="M126.62,31.6c0,.3,0,.59-.01,.89,0,.07-.02,.14-.03,.21,0-.99,0-1.98,0-2.97,0-.36,0-.71,0-1.07,.02,.19,.03,.38,.05,.57v.55c.28-.15,.55-.29,.82-.43,.08-.04,.15-.08,.23-.11,0,.36,0,.73,0,1.09-.04,.01-.09,.01-.12,.03-.28,.14-.57,.27-.85,.42-.03,.02-.06,.07-.07,.11,0,.15,0,.3,0,.45,0,.09,0,.17,0,.26Z"/><path class="cls-62" d="M124.43,32.44s0-.06,0-.09c0-.15-.04-.33,.02-.45,.05-.1,.24-.12,.36-.18,.14-.07,.28-.16,.42-.23,.08-.04,.17-.05,.25-.07,.02,.57,.02,.57-.5,.82-.17,.08-.33,.21-.54,.19Z"/><path class="cls-78" d="M125.47,30.33c-.27,.15-.53,.3-.8,.44-.11,.06-.22,.11-.24,.26v-.67c.14-.09,.27-.19,.42-.27,.2-.11,.41-.21,.63-.33v.56Z"/><path class="cls-65" d="M126.62,31.34c0-.15,0-.3,0-.45,0-.04,.03-.1,.07-.11,.28-.14,.57-.28,.85-.42,.04-.02,.08-.02,.12-.03,.03,.65,0,.57-.48,.82-.12,.06-.23,.12-.34,.19-.07,.04-.15,.06-.22,0Z"/><path class="cls-32" d="M127.66,29.23c-.08,.04-.15,.07-.23,.11-.27,.14-.53,.28-.82,.43v-.55c.28-.15,.56-.31,.83-.46,.06-.03,.13-.06,.21-.1v.56Z"/><path class="cls-71" d="M144.33,23.08c-.67,8.68-6.24,14.85-12.48,16.99,6.91-3.69,11.03-11.48,9.69-19.63-1.65-10.07-11.01-16.94-21.05-15.59,2.94-1.36,6.02-1.83,9.22-1.37,8.99,1.28,15.4,9.64,14.63,19.61Z"/><path class="cls-83" d="M112.58,41.69c-6.48-5.8-8.01-13.97-5.92-20.23-1.26,7.73,2.42,15.73,9.71,19.62,9,4.8,20.15,1.54,25.17-7.26-.7,3.16-2.21,5.89-4.51,8.15-6.48,6.37-17.01,6.38-24.46-.29Z"/><path class="cls-2" d="M108.02,7.15C116.08,.36,126.13-.08,133.28,3.49c-9.05-2.83-19.28,.23-25.18,8.32-7.28,9.98-5.27,23.9,4.44,31.42-3.68-1.38-6.69-3.64-9.02-6.79-6.54-8.85-4.76-21.49,4.5-29.29Z"/></svg>