<?xml version="1.0" encoding="UTF-8"?>
<svg id="Layer_1" data-name="Layer 1" xmlns="http://www.w3.org/2000/svg" viewBox="0 0 244 48">
  <defs>
    <style>
      .cls-1 {
        fill: #fff;
      }

      .cls-2 {
        fill: #b44c1a;
      }
    </style>
  </defs>
  <path class="cls-1" d="M133.93,20.96c.31,0,.62-.02,.92,0,.23,.01,.44,.1,.64,.22,.5,.31,.55,.87,.09,1.25-.24,.19-.51,.33-.8,.41-.72,.2-1.43,.39-2.16,.56-2.11,.49-4.23,.96-6.34,1.47-1.79,.43-3.56,.98-5.25,1.72-.28,.12-.55,.24-.81,.39-.16,.09-.29,.23-.42,.35-.43,.41-.9,.76-1.41,1.05-.36,.2-.75,.34-1.12,.51-.03,.01-.05,.03-.08,.04-.1,.01-.09-.05-.1-.12-.01-.23-.01-.47-.05-.7-.1-.56-.49-.87-1.06-.85-.07,0-.15,.01-.22,.03-.62,.12-1.17,.39-1.65,.8-.36,.3-.65,.66-.86,1.08-.04,.08-.08,.14-.18,.12-.19-.07-.38-.15-.57-.22,.06-.06,.1-.12,.17-.17,.28-.22,.56-.44,.79-.73,.18-.23,.31-.48,.31-.78,0-.05,0-.1,0-.15,0-.1,.05-.13,.14-.12,.1,0,.21,0,.31,0,.12,.01,.25,.04,.37,.03,.59,0,1.18-.01,1.77-.05,.52-.03,1.04-.1,1.54-.26,.21-.07,.42-.17,.62-.28,.19-.11,.2-.27,.03-.41-.09-.07-.19-.13-.3-.18-.45-.19-.93-.29-1.41-.36-.84-.12-1.68-.22-2.51-.33-.12-.02-.23-.05-.35-.08,.72-.07,1.44,0,2.16,.11,.93,.13,1.86,.29,2.79,.45,.19,.03,.37,.03,.56-.04,.59-.21,1.18-.41,1.78-.6,1.54-.5,3.08-1,4.62-1.51,1.84-.6,3.67-1.21,5.51-1.81,.43-.14,.86-.29,1.29-.44,.31-.1,.61-.19,.92-.29,.01,0,.02-.04,.02-.06h.07c.08-.02,.16-.03,.24-.05Z"/>
  <path class="cls-1" d="M110.06,25.42c-.19,0-.19,0-.18-.19,.04-.66,.08-1.32,.12-1.98,.05-.97,.11-1.94,.16-2.9,.01-.09,.03-.17,.04-.26,.02-.27,.04-.54,.05-.81,.15,.01,.3,.02,.45,.04,.18,.02,.36,.06,.54,.09,.28,.05,.33,0,.34-.29,0-.04,0-.07,0-.11,.01-.18,.03-.35,.04-.53,0-.07,0-.14,.01-.21,.01-.12,.04-.24,.04-.36,0-.35,0-.35,.35-.44,.07,.02,.15,.03,.22,.05-.07,.02-.14,.04-.21,.06-.13,.03-.19,.09-.2,.24-.02,.49-.05,.98-.08,1.47,0,.09,0,.19-.02,.28-.02,.1,.01,.16,.12,.17,.17,0,.34,0,.49-.09,.09-.04,.18-.09,.27-.13,.24,.05,.48,.1,.72,.14,.1,.02,.2,.04,.3,.03,.07,0,.16-.05,.2-.1,.08-.1,.13-.22,.2-.34,.05-.12,.09-.23,.14-.35,.03-.12,.06-.23,.09-.35,.02-.12,.03-.23,.05-.35,.01-.14,.04-.29,.04-.43,0-.41,.1-.41-.39-.49-.4-.07-.81-.13-1.21-.19-.37-.05-.74-.11-1.1-.16-.4-.05-.79-.1-1.19-.16,0-.08,0-.17,0-.25,.03,0,.05-.01,.08-.02,.03-.01,.06-.02,.09-.04,.21-.03,.41-.06,.62-.09,.03,.03,.05,.08,.08,.09,.47,.08,.93,.15,1.4,.23,.25,.04,.5,.08,.76,.12,.24,.03,.48,.06,.72,.1,.01-.43-.38-.67-.72-.78-.15-.05-.32-.04-.48-.04-.13,0-.26,.01-.39,.02,.46-.13,.91-.12,1.34,.09,.09,.09,.17,.17,.26,.26,.16,.16,.2,.38,.26,.59-.01,.48,0,.96-.04,1.43-.02,.24-.07,.49-.19,.71-.14,.25-.26,.51-.47,.71-.07,.07-.09,.12,0,.18,.1,.06,.18,.15,.26,.23,.26,.28,.36,.62,.35,.99,0,.41-.02,.82-.04,1.23-.03,.45-.11,.88-.35,1.27-.3,.49-.72,.84-1.26,1.03-.2,.07-.4,.14-.6,.2h0c-.38,.07-.76,.13-1.13,.2-.17,.03-.33,.07-.5,.11l-.4,.08Zm2.65-4.24c-.06-.04-.12-.11-.18-.12-.11-.01-.23,.02-.34,.03-.16,.03-.32,.05-.47,.1-.05,.01-.09,.09-.1,.14-.03,.14-.04,.27-.04,.41-.02,.37-.03,.75-.05,1.12,0,.04,0,.09,0,.13-.02,.24-.03,.48-.05,.74,.24-.04,.43-.08,.63-.12,.09-.03,.18-.06,.26-.09,.14-.06,.26-.15,.31-.31,.15-.27,.14-.57,.14-.87,0-.3,.03-.61,.02-.91,0-.08-.08-.16-.12-.25Z"/>
  <path class="cls-1" d="M114.22,27.11c-.1,0-.21,0-.31,0-.09,0-.14,.02-.14,.12,0,.05,0,.1,0,.15,0,.3-.13,.55-.31,.78-.23,.29-.51,.51-.79,.73-.06,.05-.11,.11-.17,.17-.21,.13-.34,.34-.45,.56-.18,.33-.28,.69-.34,1.06-.03,.2-.15,.33-.29,.45-.12,.1-.34,.1-.47,0-.07-.05-.03-.09,0-.15,.06-.12,.12-.25,.17-.38,.02-.05,.02-.11,0-.15-.01-.05-.05-.1-.08-.14-.04,.03-.1,.04-.12,.08-.06,.1-.09,.21-.14,.33-.06-.08-.03-.16,0-.24,.09-.24,.16-.49,.27-.72,.26-.54,.22-1.06-.08-1.58-.17-.3-.36-.59-.5-.9-.25-.53-.2-1.04,.14-1.52,.11-.12,.22-.23,.33-.35,.14-.07,.29-.07,.43-.1,.16-.03,.31-.08,.47-.08,.03,0,.07-.05,.1-.08,.09,0,.18,0,.27,.01-.14,.11-.29,.18-.47,.17-.05,0-.14,.04-.16,.08-.04,.08,.03,.14,.1,.16,.09,.03,.19,.07,.28,.06,.28-.04,.3,.33,.55,.32,.03,0,.06,.06,.08,.1,.14,.29,.52,.55,.83,.56,.11,0,.16,.03,.16,.15,0,.15,.09,.2,.24,.15,.05-.02,.09-.05,.14-.07,.2-.09,.25-.07,.35,.17h-.42s0,.01,0,.02c.12,.02,.24,.05,.35,.07Zm-3.19-.77s-.01-.1-.04-.17c-.06-.15-.22-.18-.3-.03-.07,.15-.16,.3-.21,.46-.03,.11-.03,.23,0,.35,.01,.06,.07,.13,.13,.16,.08,.04,.15-.01,.2-.09,.12-.19,.22-.4,.21-.68Z"/>
  <path class="cls-1" d="M119.18,20.92c.03-.1,.06-.21,.09-.31,.05,0,.1-.02,.14-.01,.09,.01,.19,.04,.28,.06,.38,.06,.76,.11,1.15,.17,.32,.05,.63,.1,.95,.14,.35,.05,.71,.1,1.06,.16,.07,.01,.15,.02,.22,.02,.03,0,.08-.05,.08-.08,0-.21-.02-.42-.03-.63-.01-.13-.03-.27-.04-.4,0-.06,0-.11-.01-.17,0-.08,.01-.16,0-.24-.02-.16-.06-.31-.08-.47,0-.07,0-.13,0-.2-.01-.17-.1-.28-.26-.31-.23-.05-.47-.07-.71-.12-.13-.02-.27-.08-.4,0-.01-.13-.03-.27-.04-.4,.1-.09,.21-.1,.35-.07,.25,.05,.5,.08,.76,.11,.21,.02,.25-.02,.21-.22-.03-.19-.06-.37-.08-.56-.02-.24-.03-.48-.05-.72-.01-.2-.03-.39-.05-.59-.04-.41-.08-.81-.13-1.22-.02-.18-.05-.36-.07-.54-.01-.13-.07-.18-.2-.16,.06-.01,.11-.03,.17-.04,.13-.03,.17,.04,.18,.15,.04,.38,.09,.75,.13,1.13,.05,.47,.09,.94,.14,1.42,0,.13,0,.26,0,.4,.04,.4,.08,.8,.12,1.2,.03,.33,.06,.65,.1,.98,.04,.37,.08,.74,.12,1.11,.04,.35,.07,.7,.1,1.05,.03,.33,.05,.67,.09,1,.01,.13-.04,.19-.14,.23-.28,.06-.56,.12-.85,.17-.04,.02-.09,.03-.13,.05-.1,.01-.21,.03-.31,.04-.07,0-.07-.05-.07-.1-.03-.33-.06-.66-.1-1,0-.06,0-.12,0-.18,0-.3-.02-.26-.23-.22-.22,.04-.44,.09-.66,.13-.14,.02-.28,.03-.41,.06-.21,.05-.26,.13-.3,.35-.06,.32-.13,.64-.19,.96-.02,.12-.04,.24-.07,.36-.02,.01-.05,.03-.07,.04-.38,.08-.75,.15-1.13,.22-.18-.02-.21-.06-.17-.23,.06-.25,.12-.49,.18-.73,.02-.08,.02-.16,.03-.23,.02-.09,.03-.18,.05-.26l.04-.18c.07-.37,.15-.73,.22-1.1Z"/>
  <path class="cls-1" d="M111.6,34.11c0,.31-.12,.57-.33,.79-.34,.34-.98,.25-1.21-.17-.14-.26-.1-.53,.01-.78,.09-.2,.23-.38,.32-.58,.1-.21,.17-.44,.24-.66,.03-.09,.05-.19,.15-.19,.07,0,.15,.05,.2,.11,.38,.42,.61,.91,.62,1.48Z"/>
  <path class="cls-1" d="M116.87,36.84c.01-.09,.03-.18,.04-.27,0-.07,0-.15,.01-.22,.08-.02,.17-.03,.25-.07,.16-.08,.31-.21,.48-.25,.33-.08,.36-.3,.33-.57,0-.01,0-.03,0-.04,0-.29,0-.59,0-.88,0-.14,0-.28,0-.49-.39,.24-.72,.45-1.06,.66,0-.16,0-.32,0-.49,.48-.27,.96-.53,1.43-.79,.49-.27,.98-.54,1.48-.81,.04,.08,.07,.14,.1,.19-.16,.35-.42,.62-.76,.79-.23,.11-.47,.2-.72,.28-.37,.12-.38,.11-.38,.49,0,.66,0,1.32,0,1.99,0,.21,0,.21-.2,.27-.32,.09-.64,.17-.96,.26-.02-.02-.03-.03-.05-.05Z"/>
  <path class="cls-1" d="M129.7,29.63s-.09-.06-.14-.08c-.02,.05-.07,.1-.07,.14,0,.26,0,.52,0,.77,0,.91,0,1.83,0,2.74,0,.07-.03,.15-.05,.22,0-1.16,0-2.32,0-3.48,0-.01,0-.03,0-.04,.01-.36,.03-.72,.04-1.08,0-.11-.04-.21-.07-.32-.02,0-.04,0-.06,0v.72c-.12,.04-.23,.07-.35,.11-.09,.04-.16,.12-.25,.14-.32,.06-.38,.27-.34,.55,0,.01,0,.03,0,.04v.53c0,.92,0,1.83,0,2.75,0,.09,0,.18,0,.26,0,.03,.06,.06,.09,.09,0,.01,0,.02,0,.04-.05-.01-.09-.03-.14-.04,0-.1,0-.21,0-.31,0-1.11,0-2.22,0-3.33,0-.98,0-1.97,0-2.95,.02-.1,.04-.21,.06-.31,0,.32,0,.65,0,.97,0,.21,0,.41,0,.62v.52c.59-.32,1.18-.64,1.76-.95,.07,.25,.15,.5,.22,.75-.06,.04-.11,.09-.17,.13-.17,.09-.34,.17-.51,.25-.11,.05-.18,.09-.1,.24,.05,.09,.05,.21,.07,.31Z"/>
  <path class="cls-1" d="M112.45,36.35c-.02-.19-.07-.37-.07-.56,0-.31,.05-.63,.07-.94,0-.09,.05-.12,.13-.15,.36-.14,.71-.29,1.07-.43,.03-.02,.06-.03,.09-.05,.08,0,.07,.06,.07,.13-.02,.31-.04,.62-.06,.94,0,.07-.01,.16,.02,.21,.06,.1,.02,.12-.06,.16-.27,.13-.55,.25-.8,.41-.14,.08-.34,.09-.39,.3-.02,0-.04,0-.06-.01Z"/>
  <path class="cls-1" d="M110.32,29.79c0,.62-.33,.88-.69,.8-.35-.07-.59-.5-.47-.84,.14-.39,.37-.71,.75-.9,.07-.03,.13-.09,.2-.13,.1-.05,.17,0,.19,.1,0,.03,0,.06,0,.09,0,.34,0,.69,0,.88Z"/>
  <path class="cls-1" d="M131.91,25.83c0,.09,0,.17,.01,.26,0,.04,0,.09,0,.13,0,2.07,0,4.14,0,6.22,0,.05,0,.1,0,.15-.02,.06-.03,.12-.05,.18,0-.08,0-.16,0-.24,0-1.36,0-2.72,0-4.09,0-.08-.03-.15-.04-.23,0-.09,0-.18-.01-.28,0-.27,0-.55,0-.82v-.36c.08-.29,.07-.59,.01-.88,0,0-.01,0-.02-.01,0-.01,0-.02,0-.04,.03,0,.06,0,.08,0Z"/>
  <path class="cls-1" d="M113.43,25.15c.18,.02,.37,.03,.55,.05,.12,.03,.23,.06,.35,.08,.84,.11,1.68,.2,2.51,.33,.48,.07,.95,.17,1.41,.36,.11,.04,.21,.1,.3,.18,.17,.14,.16,.3-.03,.41-.2,.11-.41,.21-.62,.28-.5,.17-1.02,.23-1.54,.26-.59,.04-1.18,.04-1.77,.05-.12,0-.25-.02-.37-.03-.12-.02-.24-.05-.35-.07,0,0,0-.01,0-.02h.42c-.09-.24-.15-.26-.35-.17-.05,.02-.09,.05-.14,.07-.15,.05-.23,0-.24-.15,0-.12-.05-.14-.16-.15-.31,0-.69-.27-.83-.56-.02-.04-.05-.1-.08-.1-.25,0-.28-.36-.55-.32-.09,.01-.19-.03-.28-.06-.07-.02-.14-.08-.1-.16,.02-.04,.1-.08,.16-.08,.18,0,.34-.06,.47-.17,.12,0,.24-.01,.35-.02,.19,0,.38,0,.57,0,.11,0,.21,0,.32,0Z"/>
  <path class="cls-1" d="M112.09,25.02c.2-.07,.4-.13,.6-.2,.55-.19,.96-.54,1.26-1.03,.24-.39,.32-.83,.35-1.27,.03-.41,.04-.82,.04-1.23,0-.37-.1-.71-.35-.99-.08-.09-.17-.17-.26-.23-.1-.07-.08-.11,0-.18,.21-.2,.33-.46,.47-.71,.12-.23,.17-.47,.19-.71,.04-.47,.03-.95,.04-1.43,.05,.1,.1,.2,.14,.31,.11,.27-.02,.53,0,.8,0,.12,0,.24-.02,.36-.06,.41-.19,.79-.42,1.13-.17,.25-.14,.41,.04,.63,.27,.33,.44,.72,.45,1.14,.02,.64,.04,1.27-.15,1.9-.1,.34-.26,.63-.48,.9-.26,.32-.62,.49-.97,.66-.29,.14-.6,.14-.91,.18Z"/>
  <path class="cls-1" d="M112.23,17.51c-.07-.02-.15-.03-.22-.05-.03-.03-.05-.07-.08-.08-.06-.02-.13-.02-.19-.03-.31-.05-.63-.11-.94-.15-.39-.05-.39-.04-.37-.45,.4,.05,.79,.1,1.19,.16,.37,.05,.74,.1,1.1,.16,.4,.06,.81,.12,1.21,.19,.48,.08,.38,.08,.39,.49,0,.14-.02,.29-.04,.43,0-.11,0-.22,0-.33,0-.08-.04-.11-.12-.12-.15,0-.31-.02-.46-.04-.33-.06-.66-.05-.98-.17-.07,0-.14,0-.22,0-.09,0-.18,0-.26,0Z"/>
  <path class="cls-1" d="M112.57,16.08c.13,0,.26-.03,.39-.02,.16,0,.33,0,.48,.04,.34,.11,.74,.35,.72,.78-.24-.03-.48-.06-.72-.1-.25-.04-.5-.08-.76-.12-.47-.07-.93-.15-1.4-.23-.03,0-.05-.06-.08-.09,.45-.09,.91-.18,1.36-.27Z"/>
  <path class="cls-1" d="M110.28,18.44c.01-.45,.03-.9,.05-1.35,0-.03,.02-.05,.03-.08,0,.16,0,.32,0,.49,0,.08,.01,.1,.1,.11,.34,.04,.68,.11,1.02,.16,.1,.01,.12,.06,.12,.14,0,.12,0,.24,0,.35,0,.07,0,.14-.01,.21-.04,0-.08,.03-.12,.03-.34-.05-.69-.09-1.03-.16-.11-.02-.13,.03-.17,.1Z"/>
  <path class="cls-1" d="M114.22,18.53c-.03,.12-.06,.23-.09,.35-.1-.03-.21-.07-.31-.09-.23-.04-.47-.04-.69-.1-.14-.04-.18,.01-.23,.1,0-.06,0-.12,0-.18,.01-.05,.04-.11,.04-.16,0-.15,0-.31,0-.46,.07,.03,.15,.07,.22,.08,.24,.04,.49,.07,.73,.09,.32,.04,.32,.04,.33,.36Z"/>
  <path class="cls-1" d="M112.1,23.61c-.2,.04-.4,.08-.63,.12,.02-.26,.03-.5,.05-.74,0-.04,0-.09,0-.13,.02-.37,.03-.75,.05-1.12,0-.14,.02-.28,.04-.41,.01-.05,.06-.13,.1-.14,.15-.04,.31-.07,.47-.1-.14,.1-.29,.21-.31,.4-.03,.22-.04,.45-.05,.68,0,.15,0,.31,0,.46,0,.22-.04,.44-.03,.66,0,.22,.11,.32,.31,.33Z"/>
  <path class="cls-1" d="M111.62,18.26c0-.12,0-.24,0-.35,0-.09-.02-.13-.12-.14-.34-.05-.68-.11-1.02-.16-.09-.01-.11-.03-.1-.11,0-.16,0-.32,0-.49,0-.09,0-.17,0-.26,.02-.08,.04-.17,.06-.25,0,.08,0,.17,0,.25-.01,.41-.01,.4,.37,.45,.32,.04,.63,.1,.94,.15,.06,.01,.13,.01,.19,.03,.03,.01,.05,.05,.08,.08-.35,.1-.34,.1-.35,.44,0,.12-.03,.24-.04,.36Z"/>
  <path class="cls-1" d="M112.94,17.99c.04-.21-.1-.35-.23-.48,.32,.12,.65,.11,.98,.17,.15,.03,.3,.04,.46,.04,.08,0,.12,.03,.12,.12,0,.11,0,.22,0,.33-.02,.12-.03,.23-.05,.35-.01-.32-.01-.32-.33-.36-.24-.03-.49-.06-.73-.09-.08-.01-.15-.06-.22-.08Z"/>
  <path class="cls-1" d="M110.28,18.44c.04-.06,.07-.12,.17-.1,.34,.07,.68,.11,1.03,.16,.04,0,.08-.02,.12-.03-.01,.18-.03,.35-.04,.53-.43-.08-.87-.09-1.28-.26,0-.1,0-.21,0-.31Z"/>
  <path class="cls-1" d="M110.28,18.74c.41,.17,.85,.18,1.28,.26,0,.04,0,.07,0,.11,0,.29-.05,.33-.34,.29-.18-.03-.36-.06-.54-.09-.15-.02-.3-.03-.45-.04,.01-.18,.03-.36,.04-.53Z"/>
  <path class="cls-1" d="M112.58,19.5c.07-.12,.15-.24,.22-.35,.01-.03,.03-.06,.04-.09,.38,.06,.76,.12,1.15,.17-.06,.11-.12,.24-.2,.34-.04,.05-.13,.09-.2,.1-.1,0-.2-.01-.3-.03-.24-.04-.48-.09-.72-.14Z"/>
  <path class="cls-1" d="M114,19.23c-.38-.06-.76-.12-1.15-.17,.02-.09,.03-.18,.05-.26,.05-.09,.1-.14,.23-.1,.22,.06,.46,.06,.69,.1,.11,.02,.21,.06,.31,.09-.05,.12-.09,.23-.14,.35Z"/>
  <path class="cls-1" d="M112.1,25.02s-.06,.03-.08,.05c-.03,.03-.06,.06-.1,.09-.03,.03-.07,.08-.1,.08-.16,0-.31,.05-.47,.08-.15,.03-.3,.04-.43,.1-.15-.03-.3-.06-.45-.09,.17-.04,.33-.08,.5-.11,.38-.07,.76-.13,1.13-.2Z"/>
  <path class="cls-1" d="M122.31,14.14c.13-.02,.19,.04,.2,.16,.02,.18,.05,.36,.07,.54,.05,.41,.09,.81,.13,1.22,.02,.2,.03,.39,.05,.59,.02,.24,.03,.48,.05,.72,.02,.19,.05,.38,.08,.56,.03,.2,0,.25-.21,.22-.25-.03-.51-.06-.76-.11-.13-.03-.25-.02-.35,.07-.02-.12-.04-.23-.05-.35,0-.08,0-.16,0-.24-.03-.26-.05-.52-.08-.77-.02-.2-.04-.41-.05-.61-.02,0-.03,0-.05,0-.05,.23-.11,.46-.16,.68-.05,.29-.09,.57-.15,.86-.05,.24-.13,.29-.37,.25-.02,0-.04-.01-.06-.02-.18-.04-.36-.12-.53-.09-.17,.02-.17-.07-.21-.15,.02-.12,.05-.24,.07-.36,.02-.04,.04-.08,.04-.12,.17-.82,.35-1.64,.51-2.46,.04-.21,.13-.31,.34-.33,.07,0,.15,0,.22-.02,.3-.06,.6-.12,.9-.18,.13-.03,.25-.04,.38-.07Z"/>
  <path class="cls-1" d="M123.12,20.42c.01,.21,.03,.42,.03,.63,0,.03-.05,.07-.08,.08-.07,0-.15,0-.22-.02-.35-.05-.71-.1-1.06-.16-.32-.05-.63-.1-.95-.14-.38-.06-.76-.11-1.15-.17-.09-.01-.19-.04-.28-.06-.05,0-.09,0-.14,.01,.03-.13,.06-.27,.09-.4,.03-.02,.07-.06,.1-.05,.11,.01,.23,.03,.34,.05,.22,.04,.44,.09,.66,.13,0,.03,0,.08,.01,.08,.05,.02,.11,.03,.17,.03,.01,0,.04-.05,.04-.07-.04-.23,.04-.44,.1-.66,0,.09,0,.17,0,.26,0,.29,.14,.38,.44,.28,.15-.02,.29-.04,.44-.06,0,0,.01,0,.02,.02,0,0,0,.02,0,.02-.1,.03-.19,.05-.29,.08-.03,0-.04,.05-.07,.08,.03,.01,.06,.03,.09,.03,.05,0,.11,0,.17,0,.19,.03,.37,.06,.56,.09,.24,.04,.48,.06,.71,.11,.27,.05,.26,.06,.27-.2Z"/>
  <path class="cls-1" d="M124.09,18.08s.02-.01,.03-.01v.41c.12,0,.21,0,.3,.02,.27,.04,.54,.09,.82,.14,.1,.02,.17-.02,.17-.14,0-.16,.03-.32,.04-.48,.03-.5,.06-1.01,.09-1.51,.03-.42,.06-.83,.09-1.25,.03-.46,.49-.86,1.04-.76,.04,0,.07,.06,.1,.09-.07,0-.15-.02-.22-.01-.31,.02-.55,.15-.69,.46-.11,.24-.11,.5-.13,.75-.02,.2,0,.41-.02,.62-.04,.67-.08,1.35-.12,2.02-.01,.03-.04,.06-.04,.09-.02,.45-.03,.9-.05,1.36,0,.06,0,.12,0,.18,0,.19-.01,.38,0,.56,.02,.22,.07,.25,.3,.29,.02,.01,.03,.03,.05,.04-.27,.11-.51-.04-.53-.34-.01-.2,0-.39,0-.59,0-.09,0-.17,0-.26,.02-.12,.04-.24,.04-.37,.01-.21-.02-.24-.23-.26-.08,0-.16-.02-.24-.03-.27-.04-.54-.07-.82-.11v-.57c0-.12,0-.23,0-.35Z"/>
  <path class="cls-1" d="M120.77,19.72c-.05,.22-.14,.43-.1,.66,0,.02-.02,.07-.04,.07-.06,0-.11,0-.17-.03-.01,0,0-.05-.01-.08,.03-.15,.06-.29,.09-.44,.05-.25,.1-.5,.15-.75,.04-.15,.08-.3,.12-.46,.02-.1,0-.16-.14-.16-.28-.02-.56-.07-.84-.1-.1,0-.06-.08-.08-.12,.03-.21,.07-.41,.1-.62,.04,.09,.04,.18,.21,.15,.17-.02,.35,.06,.53,.09,.02,0,.04,.01,.06,.02,.24,.04,.32,0,.37-.25,.06-.28,.09-.57,.15-.86,.04-.23,.1-.46,.16-.68,.02,0,.03,0,.05,0,.02,.2,.04,.41,.05,.61-.03,.05-.07,.09-.08,.14-.11,.49-.21,.97-.31,1.46-.09,.45-.18,.9-.26,1.36Z"/>
  <path class="cls-1" d="M123.99,21.14c-.01-.07-.04-.14-.04-.21,.01-.31,.03-.62,.04-.93,0-.08,0-.16,0-.24,0-.16,0-.32,0-.48,0-.05,.02-.09,.04-.14,0,.12,0,.25,0,.37,0,.08,.03,.12,.12,.12,.12,0,.23,.02,.34,.03,.27,.03,.54,.07,.82,.1,0,.09,0,.17,0,.26-.01,.06-.03,.12-.04,.19,0,.09,0,.18,0,.26,0,.09-.05,.13-.15,.12-.28-.04-.56-.08-.84-.12-.3-.05-.3-.05-.29,.27,0,.13,0,.27,0,.4Z"/>
  <path class="cls-1" d="M120.69,19.14c-.05,.25-.1,.5-.15,.75-.26-.04-.52-.09-.77-.13-.11-.02-.22-.03-.32-.04,0-.27,.06-.52,.17-.76,.02,.02,.04,.07,.06,.07,.07,.01,.14,0,.21,.01,.27,.03,.54,.06,.8,.09Z"/>
  <path class="cls-1" d="M125.32,19.76c-.27-.04-.54-.07-.82-.1-.11-.01-.23-.03-.34-.03-.08,0-.12-.04-.12-.12,0-.12,0-.25,0-.37,.02-.24,.03-.47,.05-.71v.57c.28,.04,.55,.08,.82,.11,.08,.01,.16,.03,.24,.03,.21,.01,.24,.04,.23,.26,0,.12-.03,.25-.04,.37Z"/>
  <path class="cls-1" d="M120.69,19.14c-.27-.03-.54-.06-.8-.09-.07,0-.14,0-.21-.01-.02,0-.04-.05-.06-.07,0-.23,.02-.46,.13-.66,.02,.04-.02,.11,.08,.12,.28,.02,.56,.08,.84,.1,.13,0,.16,.06,.14,.16-.03,.15-.08,.31-.12,.46Z"/>
  <path class="cls-1" d="M119.45,19.72c.11,.01,.22,.02,.32,.04,.26,.04,.52,.09,.77,.13-.03,.15-.06,.29-.09,.44-.22-.04-.44-.09-.66-.13-.11-.02-.23-.04-.34-.05-.03,0-.07,.03-.1,.05l.09-.48Z"/>
  <path class="cls-1" d="M115.01,34.8c.03-.21,.07-.42,.08-.63,0-.36-.15-.66-.43-.87-.21-.16-.43-.3-.66-.45-.3-.19-.59-.39-.79-.69-.27-.38-.34-.81-.32-1.26,.04-.78,.25-1.51,.71-2.15,.53-.72,1.24-1.17,2.1-1.36,.75-.16,1.21,.2,1.28,.97,.02,.16,0,.32,.01,.49,0,.06,.03,.12,.04,.18-.01,.01-.02,.02-.03,.03-.09,.12,.01,.29-.15,.41-.13,.09-.25,.17-.39,.24-.01,0-.03,0-.04,.01-.24,.07-.47,.15-.71,.22-.08,0-.13,0-.12-.12,.02-.25,.02-.51,.03-.77-.05-.15-.15-.24-.29-.21-.35,.07-.66,.21-.81,.57-.02,.03-.03,.05-.05,.08-.03,.03-.07,.06-.08,.1-.03,.26-.06,.51-.06,.77,0,.26,.1,.49,.31,.66,.16,.13,.33,.25,.49,.38,.19,.13,.38,.24,.56,.38,.24,.18,.45,.38,.6,.64,.04,.07,.11,.12,.16,.18-.1,.14,.02,.24,.05,.35,0,.07,0,.14,0,.22-.03,.31-.06,.62-.1,.93,0,.05-.05,.1-.09,.13-.29,.15-.59,.3-.88,.45-.12,.06-.23,.13-.34,.19-.08,.04-.08-.02-.1-.07Z"/>
  <path class="cls-1" d="M116.92,29.94c.33-.2,.71-.26,1.06-.4,.04-.01,.09-.03,.13-.04,.22-.03,.45-.06,.67-.1,.14-.03,.27-.03,.42,0,.12,.02,.23,0,.36,.08,.16,.09,.3,.2,.41,.34,.05,.14,.11,.27,.16,.41,.09,.62,.08,1.23,.02,1.85-.39,.2-.78,.4-1.17,.61-.17,.09-.34,.2-.51,.29-.51,.28-1.03,.55-1.55,.82,0-.14,0-.28,0-.42,0-1.14,0-2.29,0-3.43Zm1.15,1.84h0c0,.27,0,.54,0,.82,0,.33,0,.34,.32,.26,.14-.04,.29-.05,.41-.17,.16-.17,.24-.36,.24-.59,0-.37,0-.75,0-1.12,0-.07-.01-.13-.03-.2-.05-.22-.16-.3-.38-.26-.14,.03-.28,.09-.42,.11-.13,.02-.15,.09-.14,.2,0,.32,0,.63,0,.95Z"/>
  <path class="cls-1" d="M123.74,28.92l.08,.27c0,.25-.03,.51,.02,.76,.05,.27-.06,.39-.28,.49-.28,.13-.56,.28-.84,.42,0-.35,0-.7,0-1.06,0-.3-.17-.42-.46-.36-.24,.05-.41,.19-.51,.41-.1,.1-.09,.24-.1,.37-.01,.35-.02,.7-.04,1.06,0,.05-.05,.12-.1,.15-.31,.19-.63,.36-.95,.54,0-.54,0-1.09-.01-1.63,.02-.12,.03-.24,.05-.35,.22-.79,.72-1.31,1.51-1.55,.44-.14,.89-.2,1.32,.06,.17,.1,.26,.25,.32,.42Z"/>
  <path class="cls-1" d="M127.53,27.64c.03,.07,.07,.14,.1,.21,.01,.05,.02,.09,.04,.14-.06,.15-.21,.19-.33,.27-.2,.14-.46,.18-.63,.37-.01,.01-.07-.02-.1-.02-.13-.25-.25-.3-.52-.22-.21,.06-.37,.19-.46,.39-.03,.1-.07,.2-.09,.3-.01,.09-.02,.15-.11,.19-.23,.12-.45,.26-.69,.38-.13,.06-.24,.14-.3,.27,0-.23,0-.47,0-.7,.01-.09,0-.19,.04-.28,.07-.21,.15-.41,.23-.61h0c.35-.56,.86-.89,1.5-1.04,.5-.11,.97-.09,1.33,.34Z"/>
  <path class="cls-1" d="M128.42,28.39c0-.21,0-.41,0-.62,.4-.23,.8-.47,1.21-.69,.18-.09,.33-.18,.25-.41,.1,.31,.2,.62,.3,.94,.09,.29,.18,.59,.27,.88,.02,.1,.04,.2,.07,.3,.05,.21,.11,.42,.16,.63-.03,.07-.05,.16-.11,.2-.16,.11-.33,.21-.5,.3-.07,.04-.16,.06-.24,.08-.03-.09-.06-.18-.09-.27,.03-.03,.06-.08,.1-.1,.19-.1,.38-.19,.57-.29,.06-.03,.13-.11,.12-.16-.02-.16-.08-.32-.13-.48-.07-.25-.15-.5-.22-.75-.06-.16-.11-.32-.16-.47-.4,.21-.78,.41-1.15,.61-.16,.09-.3,.19-.45,.29Z"/>
  <path class="cls-1" d="M129.88,26.66c.08,.24-.07,.32-.25,.41-.41,.22-.81,.46-1.21,.69,0-.32,0-.65,0-.97,.24-.07,.49-.15,.73-.22,.16-.05,.33-.09,.49-.13,.17-.04,.17-.04,.22,.13,0,.03,.01,.06,.02,.09Z"/>
  <path class="cls-1" d="M131.82,27.11c0,.27,0,.55,0,.82-.07,0-.14,0-.2,.03-.26,.12-.51,.25-.76,.38,0-.27,0-.53,0-.8,.08-.02,.17-.02,.25-.06,.24-.12,.48-.25,.71-.37Z"/>
  <path class="cls-1" d="M131.82,25.86s.02,0,.02,.01c.06,.29,.07,.59,0,.88,0-.03,0-.06,0-.09,0-.09,0-.17,0-.26,0-.14-.05-.17-.18-.11-.16,.07-.3,.17-.46,.24-.16,.07-.3,.14-.26,.35,0,0-.02,.02-.03,.03,0-.27,0-.55,0-.82,.3-.08,.61-.16,.91-.24Z"/>
  <path class="cls-1" d="M131.83,26.66s0,.06,0,.09v.36c-.25,.12-.48,.25-.72,.37-.07,.04-.16,.04-.25,.06,0-.42,0-.85,0-1.27,0-.06,.03-.11,.05-.17,0,.27,0,.55,0,.82,0,.06,0,.11,0,.19,.13-.06,.23-.11,.33-.16,.19-.1,.39-.19,.58-.29Z"/>
  <path class="cls-1" d="M130.86,28.35c.25-.13,.5-.26,.76-.38,.06-.03,.13-.02,.2-.03,0,.09,0,.18,.01,.28,0,.04,0,.09,0,.13-.23,.12-.46,.25-.7,.35-.17,.07-.26,.16-.23,.35,0,.04-.02,.09-.03,.14v-.8s0-.03,0-.04Z"/>
  <path class="cls-1" d="M116.43,29.72s.03-.01,.04-.01c-.01,0-.03,0-.04,.01Z"/>
  <path class="cls-1" d="M123.33,22.77c.1-.04,.16-.1,.14-.23-.04-.33-.06-.67-.09-1-.03-.35-.06-.7-.1-1.05-.04-.37-.08-.74-.12-1.11-.03-.33-.06-.65-.1-.98-.04-.4-.09-.8-.12-1.2-.01-.13,0-.26,0-.4,.01,.02,.04,.03,.04,.05,.05,.26,.09,.52,.14,.78,.02,.14,.06,.27,.09,.4-.02,.48,.11,.94,.14,1.42,.02,.28,.08,.56,.12,.84,.03,.26,.06,.53,.09,.79,.03,.26,.07,.52,.1,.78,.02,.17,.04,.34,.02,.5-.01,.23-.17,.38-.35,.39Z"/>
  <path class="cls-1" d="M121.65,20.19c.12-.27,.35-.18,.55-.15,.24,.03,.48,.06,.71,.13,.16,.04,.17-.03,.17-.14,.01,.13,.03,.27,.04,.4-.01,.26,0,.26-.27,.2-.24-.05-.47-.07-.71-.11-.19-.03-.37-.06-.56-.09-.05,0-.11,0-.17,0-.03,0-.06-.02-.09-.03,.02-.03,.04-.07,.07-.08,.09-.03,.19-.05,.29-.08,0,0,0-.01,0-.02,0,0-.01-.01-.02-.02Z"/>
  <path class="cls-1" d="M121.62,18.79c0-.09,0-.18,0-.26,.13-.08,.27-.03,.4,0,.23,.04,.47,.07,.71,.12,.16,.03,.25,.15,.26,.31,0,.07,0,.13,0,.2-.36-.06-.72-.12-1.09-.16-.14-.02-.25-.04-.27-.19Z"/>
  <path class="cls-1" d="M121.62,18.79c.03,.16,.13,.18,.27,.19,.36,.04,.73,.11,1.09,.16,.03,.16,.06,.31,.08,.47,.01,.08,0,.16,0,.24,0,0-.01,0-.02-.02-.02-.08-.01-.2-.06-.22-.1-.05-.22-.06-.34-.07-.28-.05-.56-.08-.84-.13-.06-.01-.11-.06-.16-.09-.02-.15-.03-.29-.05-.44,0-.03,0-.06,.01-.09Z"/>
  <path class="cls-1" d="M120.99,21.66c-.41,.11-.46,.46-.53,.8-.05,.24-.04,.5-.2,.7-.07,.08-.16,.15-.23,.22,.02-.12,.04-.24,.07-.36,.06-.32,.14-.64,.19-.96,.04-.22,.08-.3,.3-.35,.13-.03,.27-.04,.41-.06Z"/>
  <path class="cls-1" d="M118.6,22.33c.06,.06,.13,.12,.2,.18,0,0,.05-.04,.07-.06,0,.08-.01,.16-.03,.23-.06,.25-.12,.49-.18,.73-.04,.17-.01,.21,.17,.23-.06,.01-.12,.03-.18,.04-.05,.01-.09,.03-.14,.04,.02-.09,.04-.17,.05-.26,.02-.38,.03-.76,.04-1.14Z"/>
  <path class="cls-1" d="M118.6,22.33c-.01,.38-.03,.76-.04,1.14,0,.09-.03,.17-.05,.26-.48,.09-.96,.18-1.45,.28-.53,.1-1.05,.2-1.57,.31-.03,0-.05,.02-.08,.04-.16,.03-.32,.06-.49,.09-.08,0-.09-.05-.09-.11,0-.17,0-.33,.01-.5,0-.05,.03-.1,.03-.15,.03-.56,.06-1.12,.09-1.68,.02-.29,.03-.59,.04-.88,.03-.37,.06-.74,.09-1.11,.05,.03,.1,.08,.15,.08,.42,.05,.82,.22,1.27,.11v.65c0,.2,0,.4,0,.6-.02,.34-.05,.69-.08,1.03,0,.04,0,.09,0,.13,.01,.03,.06,.08,.08,.08,.22-.03,.44-.07,.66-.11,.06-.02,.12-.03,.18-.05,.18-.04,.36-.08,.55-.11,.23-.04,.46-.07,.69-.11Z"/>
  <path class="cls-1" d="M115.28,17.01c.02-.37,.04-.74,.05-1.12,0-.09,0-.17,0-.26,0-.1,.03-.15,.13-.16,.05,0,.1,0,.15-.02,.29-.05,.58-.11,.87-.16,.22,.01,.23,.01,.22,.23,0,.29-.02,.58-.05,.87-.02,.26-.05,.52-.09,.78-.02,.15-.05,.16-.2,.13-.3-.05-.6-.11-.9-.13-.15,0-.19-.05-.19-.18Z"/>
  <path class="cls-1" d="M115.28,17.01c0,.13,.04,.17,.19,.18,.3,.01,.6,.08,.9,.13,.15,.02,.18,.02,.2-.13,.04-.26,.07-.52,.09-.78,.02-.29,.04-.58,.05-.87,0-.22,0-.22-.22-.23,.12-.03,.23-.05,.35-.08,0,.28,0,.56,0,.83-.01,.03-.04,.06-.04,.1-.02,.36-.03,.72-.05,1.08-.02,.37-.03,.75-.05,1.12,0,.03-.02,.07-.04,.1,.02-.12-.04-.12-.13-.09,0-.12,0-.23,0-.35,0-.13-.05-.18-.18-.19-.26-.02-.52-.05-.77-.1-.13-.03-.25-.04-.37,.02,.03-.24,.05-.47,.08-.71Z"/>
  <path class="cls-1" d="M115.15,19.1c.02-.3,.03-.59,.05-.89,.06,.02,.13,.04,.19,.05,.25,.04,.5,.08,.75,.12,.11,.02,.26,0,.32,.08,.06,.08,.02,.22,.03,.34,0,.12,0,.23-.01,.35-.05,.05-.04,.16-.16,.13-.13-.03-.25-.05-.38-.07-.26-.04-.52-.07-.77-.1Z"/>
  <path class="cls-1" d="M115.15,19.1c.26,.03,.52,.07,.77,.1,.13,.02,.26,.04,.38,.07,.12,.03,.11-.09,.16-.13l-.04,.71c-.42-.06-.85-.11-1.26-.17-.02,.05-.04,.11-.07,.17,.01-.25,.03-.5,.04-.75Z"/>
  <path class="cls-1" d="M116.48,18.79c0-.12,.03-.26-.03-.34-.05-.07-.21-.06-.32-.08-.25-.04-.5-.08-.75-.12-.06-.01-.13-.03-.19-.05v-.49c.12-.06,.24-.04,.37-.02,.25,.05,.51,.08,.77,.1,.13,.01,.18,.06,.18,.19,0,.12,0,.23,0,.35-.01,.15-.03,.3-.04,.44Z"/>
  <path class="cls-1" d="M115.11,19.85c.02-.06,.04-.12,.07-.17,.41,.05,.84,.11,1.26,.17,0,.08,0,.17,.13,.14,0-.15,0-.31,0-.46,0-.07,.03-.13,.04-.2-.02,.48-.03,.97-.05,1.45,0,.03-.03,.07-.04,.1v-.65c-.45,.11-.85-.06-1.27-.11-.05,0-.1-.05-.15-.08,0-.06,0-.12,0-.18Z"/>
  <path class="cls-1" d="M123.87,33.53c-.02,.14-.02,.29-.06,.43-.08,.31-.21,.6-.42,.84-.44,.5-1.01,.75-1.67,.79-.51,.04-.88-.18-1.08-.66,.09-.03,.18-.04,.27-.08,.21-.11,.42-.23,.63-.35,.08-.04,.12-.09,.12-.19,0-.03,.02-.06,.04-.09,.14,.25,.28,.3,.54,.21,.29-.1,.46-.3,.49-.61,.01-.06,.03-.12,.04-.18,.21,.03,.35-.11,.52-.19,.1-.05,.2-.1,.29-.15,.09-.05,.17-.12,.28-.2,0,.16,.01,.29,.02,.42Z"/>
  <path class="cls-1" d="M123.87,33.53c0-.13-.01-.26-.02-.42-.11,.08-.19,.14-.28,.2-.09,.06-.19,.11-.29,.15-.17,.08-.31,.22-.52,.19,0-.19,0-.38,0-.57,0-.07,.01-.11,.09-.14,.27-.12,.54-.27,.81-.39,.13-.06,.16-.14,.15-.27,0-.29,0-.59,0-.88,0-.1,0-.19,0-.29,0-.17-.04-.19-.19-.11-.29,.16-.58,.32-.86,.47-.01-.12-.03-.24-.04-.35,0-.09,0-.18,0-.27,.28-.14,.55-.29,.84-.42,.21-.1,.33-.22,.28-.49-.05-.24-.01-.51-.02-.76,.03,.18,.08,.35,.08,.53,0,1.01,0,2.02,0,3.03,0,.19,0,.38,0,.57,0,.07-.02,.14-.03,.21Z"/>
  <path class="cls-1" d="M116.92,34.23c0-.15,0-.29,0-.44,.52-.27,1.03-.55,1.55-.82,.17-.09,.34-.2,.51-.29,.39-.21,.78-.41,1.17-.61,0,.09,0,.17-.01,.26-.07,.16-.14,.33-.21,.49-.03-.05-.06-.11-.1-.19-.49,.27-.98,.54-1.48,.81-.48,.26-.96,.53-1.43,.79Z"/>
  <path class="cls-1" d="M120.54,30.33c0,.54,0,1.09,.01,1.63,0,.18,0,.35,0,.53v.54c.35-.25,.75-.35,1.05-.62,0,.41,0,.82,0,1.23-.06,0-.13-.03-.18,0-.2,.09-.38,.22-.58,.3-.23,.09-.33,.23-.3,.47-.01-.08-.03-.16-.03-.23,0-.5,0-1,0-1.5,0-.71,0-1.41,0-2.12,0-.08,.02-.15,.04-.23Z"/>
  <path class="cls-1" d="M121.61,33.65c0-.41,0-.82,0-1.23v-.52c-.36,.21-.71,.4-1.05,.6,0-.18,0-.35,0-.53,.32-.18,.64-.36,.95-.54,.05-.03,.1-.1,.1-.15,.02-.35,.03-.7,.04-1.06,0-.13,0-.26,.1-.37-.02,.26-.04,.51-.05,.77,0,.38,0,.76,0,1.15,0,.82,0,1.64,0,2.47-.01,.03-.04,.06-.04,.09,0,.09-.04,.14-.12,.19-.21,.11-.42,.24-.63,.35-.08,.04-.18,.05-.27,.08-.02-.07-.04-.14-.05-.22,.03-.04,.05-.09,.09-.11,.17-.09,.34-.17,.5-.26,.14-.07,.33-.12,.4-.23,.07-.12,.02-.31,.02-.47Z"/>
  <path class="cls-1" d="M121.61,33.65c0,.16,.05,.35-.02,.47-.07,.12-.26,.16-.4,.23-.17,.09-.34,.17-.5,.26-.04,.02-.06,.07-.09,.11-.02-.1-.03-.21-.05-.31-.03-.24,.06-.38,.3-.47,.2-.08,.39-.21,.58-.3,.05-.02,.12,0,.18,0Z"/>
  <path class="cls-1" d="M130.68,29.41c.03,.09,.06,.17,.09,.26-.02,.1,0,.19,.13,.29,0-.19,0-.34,0-.5,0-.1,.02-.16,.13-.2,.14-.05,.28-.13,.42-.2,.39-.21,.39-.21,.39-.66,0-.02,0-.04,0-.07,0-.04,0-.09,0-.13,.01,.08,.04,.15,.04,.23,0,1.36,0,2.72,0,4.09,0,.08,0,.16,0,.24-.02,.02-.03,.03-.05,.05-.31,.08-.63,.17-.94,.25-.11,.02-.17,0-.2-.13-.28-.97-.56-1.93-.84-2.89,0-.02,0-.04,0-.07,.08-.03,.16-.04,.24-.08,.17-.09,.34-.19,.5-.3,.05-.04,.07-.13,.11-.2Z"/>
  <path class="cls-1" d="M129.43,29.94c0,1.16,0,2.32,0,3.48-.11,.08-.25,.1-.37,.15-.18,.07-.36,.09-.54,.13-.03-.03-.09-.06-.09-.09-.01-.09,0-.18,0-.26,0-.92,0-1.83,0-2.75,.08-.02,.17-.03,.25-.07,.13-.06,.24-.13,.37-.2,.15-.08,.32-.15,.34-.36,0-.01,.03-.03,.05-.04Z"/>
  <path class="cls-1" d="M130.41,28.7c.04,.16,.1,.32,.13,.48,0,.05-.07,.12-.12,.16-.18,.1-.38,.19-.57,.29-.04,.02-.07,.07-.1,.1-.02-.03-.03-.06-.05-.09-.02-.11-.02-.22-.07-.31-.08-.14,0-.19,.1-.24,.17-.08,.34-.16,.51-.25,.06-.03,.11-.08,.17-.13Z"/>
  <path class="cls-1" d="M116.52,33.16c.08,.31,0,.62-.03,.94,0,.03,0,.06,0,.09-.09,.27-.18,.53-.27,.8-.03-.05-.06-.1-.08-.15-.34,.18-.68,.36-1.01,.54-.29,.16-.58,.32-.86,.47-.43,.23-.85,.47-1.28,.68-.14,.07-.25,.12-.3,.27-.13-.12-.2-.27-.22-.44,.02,0,.04,0,.06,.01,.05-.21,.25-.22,.39-.3,.26-.15,.53-.28,.8-.41,.08-.04,.12-.06,.06-.16-.04-.05-.02-.14-.02-.21,.02,.04,.03,.08,.05,.12,.07,.15,.18,.21,.34,.17,.35-.09,.63-.27,.8-.6,.03-.06,.06-.12,.09-.17,.01,.05,.02,.11,.1,.07,.11-.06,.23-.13,.34-.19,.29-.15,.59-.3,.88-.45,.04-.02,.09-.08,.09-.13,.04-.31,.07-.62,.1-.93Z"/>
  <path class="cls-1" d="M112.67,36.79c.05-.15,.16-.2,.3-.27,.44-.21,.86-.45,1.28-.68,.29-.16,.58-.32,.86-.47,.34-.18,.67-.36,1.01-.54,.02,.05,.05,.1,.08,.15-.24,.67-.7,1.17-1.28,1.56,0-.02-.02-.06-.01-.07,.09-.07,.19-.14,.28-.22,.26-.21,.47-.46,.63-.76-.11,.02-.21,.06-.31,.11-.11,.06-.21,.13-.32,.19-.35,.19-.71,.38-1.06,.57-.29,.16-.58,.32-.87,.46-.17,.08-.17,.07-.16,.24-.19-.03-.34-.11-.44-.27Z"/>
  <path class="cls-1" d="M113.11,37.07c-.01-.17,0-.16,.16-.24,.3-.15,.58-.31,.87-.46,.35-.19,.71-.38,1.06-.57,.11-.06,.21-.13,.32-.19,.09-.05,.2-.08,.31-.11-.16,.3-.37,.55-.63,.76-.09,.07-.19,.14-.28,.22,0,0,0,.04,.01,.07-.51,.33-1.04,.59-1.66,.57-.05,0-.11-.03-.16-.04Z"/>
  <path class="cls-1" d="M116.92,35.82c0-.22,0-.45,0-.67,.35-.21,.71-.41,1.06-.62,0,.29,0,.59,0,.88-.08,.02-.17,.03-.25,.06-.21,.1-.41,.22-.61,.34-.08,.05-.13,.04-.2,0Z"/>
  <path class="cls-1" d="M116.92,35.82c.07,.03,.12,.05,.2,0,.2-.12,.4-.23,.61-.34,.07-.04,.17-.04,.25-.06,0,.01,0,.03,0,.04,.03,.27,0,.49-.33,.57-.17,.04-.32,.17-.48,.25-.08,.04-.17,.04-.25,.07,0-.18,0-.35,0-.53Z"/>
  <path class="cls-1" d="M117.98,34.54c-.35,.21-.71,.41-1.06,.62,0-.15,0-.3,0-.44,.34-.21,.67-.42,1.06-.66,0,.2,0,.34,0,.49Z"/>
  <path class="cls-1" d="M128.42,28.39c.15-.1,.3-.2,.45-.29,.37-.2,.75-.4,1.15-.61,.05,.15,.11,.31,.16,.47-.59,.32-1.17,.64-1.76,.95v-.52Z"/>
  <path class="cls-1" d="M129.43,29.94s-.05,.02-.05,.04c-.03,.21-.19,.28-.34,.36-.12,.06-.24,.14-.37,.2-.08,.04-.17,.04-.25,.07,0-.18,0-.35,0-.53,.19-.09,.37-.2,.57-.26,.31-.09,.41-.28,.35-.58v-.72s.04,0,.06,0c.02,.11,.07,.22,.07,.32,0,.36-.02,.72-.04,1.08,0,.01,0,.03,0,.04Z"/>
  <path class="cls-1" d="M129.35,29.23c.06,.3-.05,.49-.35,.58-.2,.06-.38,.17-.57,.26,0-.01,0-.03,0-.04-.05-.28,.01-.49,.34-.55,.09-.02,.16-.1,.25-.14,.11-.05,.23-.08,.35-.11Z"/>
  <path class="cls-1" d="M130.72,15.47c.12-.25,.23-.5,.35-.75,.23-.48,.47-.96,.7-1.44,.15-.3,.31-.59,.43-.89,.09-.22,.24-.32,.46-.32,.26-.04,.52-.08,.78-.12,.04,0,.09,.01,.14,.02-.01,.04-.02,.08-.04,.12-.08,.15-.18,.3-.25,.46-.14,.3-.27,.61-.42,.91-.23,.49-.48,.98-.71,1.46-.07,.14-.13,.29-.21,.43-.13,.25-.26,.5-.38,.76-.03,.06-.02,.16,0,.23,.16,.46,.33,.92,.49,1.38,.14,.4,.28,.8,.41,1.19,.07,.21,.15,.42,.22,.64,.05,.16,.03,.19-.14,.2-.04,0-.07,0-.11,0-.17-.04-.34-.09-.51-.11-.23-.02-.46-.11-.69-.02,0,0-.01,0-.01,0-.1-.31-.2-.62-.3-.93-.03-.1-.07-.2-.1-.31-.03-.1-.06-.2-.09-.3-.02-.06-.03-.13-.06-.18-.05-.1-.09-.1-.15,0-.04,.07-.06,.15-.1,.22-.2,.31-.33,.63-.3,1,.01,.19-.04,.23-.23,.21-.36-.04-.72-.09-1.08-.14,0-.01-.01-.03-.02-.04,0-.19,.02-.38,.03-.57,.03-.63,.07-1.27,.1-1.9,.03-.37,.06-.75,.08-1.12,.05-.86,.1-1.71,.15-2.57,.01-.18-.04-.22,.23-.27,.29-.05,.58-.11,.86-.16,.24,.02,.24,.02,.23,.26-.03,.53-.06,1.07-.09,1.6-.02,.39-.03,.78-.05,1.16,0,.06-.02,.12-.02,.17-.02,.14-.04,.28,.06,.43,.11-.24,.21-.47,.32-.71Z"/>
  <path class="cls-1" d="M131.26,19.63c.23-.09,.46,0,.69,.02,.17,.02,.34,.07,.51,.11,.04,0,.07,0,.11,0,.17,0,.2-.03,.14-.2-.07-.21-.15-.42-.22-.64-.14-.4-.27-.8-.41-1.19-.16-.46-.33-.92-.49-1.38-.02-.07-.04-.17,0-.23,.12-.26,.25-.51,.38-.76,.07-.14,.14-.29,.21-.43,.24-.49,.48-.97,.71-1.46,.14-.3,.27-.61,.42-.91,.08-.16,.17-.3,.25-.46,.02-.04,.02-.08,.04-.12-.05,0-.1-.03-.14-.02-.26,.04-.52,.08-.78,.12,.36-.07,.72-.15,1.08-.22,.02,0,.06,.03,.09,.05-.06,.13-.13,.27-.19,.4-.08,.15-.16,.31-.24,.46-.48,.99-.96,1.99-1.45,2.98-.23,.29-.26,.59-.11,.94,.19,.45,.34,.92,.5,1.38,.15,.43,.3,.87,.45,1.31,.14,.4,.28,.8,.42,1.2,.05,.13,.04,.22-.11,.27-.09,.02-.17,.03-.26,.05-.27,.06-.54,.11-.81,.17-.06,0-.11,0-.17,0l-.06-.02s.03-.06,.05-.06c.28-.06,.57-.12,.86-.18,.13-.03,.25-.04,.38-.07-.05-.23-.13-.4-.38-.43-.3-.03-.6-.09-.91-.12-.11-.01-.23,.03-.34,.04-.09-.19-.21-.36-.21-.58Z"/>
  <path class="cls-1" d="M124.35,22.02c-.08-.14-.15-.28-.23-.4-.07-.1-.07-.2-.07-.3,.01-.05-.03-.15,.1-.09,.04,.02,.09,.03,.14,.04,.27,.04,.53,.06,.8,.1,.32,.05,.64,.11,.97,.16,.27,.04,.54,.06,.8,.1,.23,.04,.41-.05,.51-.28,.07-.1,.14-.21,.22-.31,.12-.22,.25-.44,.28-.7,.03-.15,.07-.3,.08-.45,.02-.32,0-.32-.31-.36-.26-.03-.52-.06-.78-.09-.04,0-.07-.06-.1-.09,0-.2,0-.4,.01-.6,.01,0,.02,0,.04,0,0,.06,.01,.13,.01,.16,.16,.01,.31,.02,.45,.04,.18,.03,.36,.07,.54,.1,.14,.02,.22-.05,.23-.19,0-.08,0-.16,0-.24,0-.09,0-.14-.12-.11-.07,.02-.16,0-.24,0,.12-.03,.24-.06,.36-.09,.14-.02,.2,.05,.17,.18,0,.03,0,.06,0,.09-.01,.06-.04,.12-.04,.19,0,.45-.02,.91-.09,1.36-.06,.34-.19,.66-.37,.95-.21,.34-.49,.64-.87,.82-.11,.05-.21,.12-.32,.19-.39,.13-.78,.21-1.19,.22-.11-.02-.23-.02-.34-.06-.19-.07-.37-.17-.55-.25-.03-.03-.06-.06-.09-.09Z"/>
  <path class="cls-1" d="M128.65,21.45s.03-.08,.03-.12c.02-.44,.03-.89,.05-1.33,0-.08,.02-.16,.03-.23,0,.1,.01,.2,0,.31,0,.11,.03,.17,.15,.19,.32,.05,.64,.12,.96,.17,.1,.01,.12,.06,.12,.14,0,.18,0,.35,0,.53-.02,.1,.05,.23-.13,.26-.36,.06-.72,.12-1.08,.17-.1,.01-.12,.05-.12,.14-.01,0-.03,0-.04,0,0-.07,0-.14,0-.21Z"/>
  <path class="cls-1" d="M131.47,20.21c.11-.02,.23-.05,.34-.04,.3,.03,.6,.09,.91,.12,.25,.03,.33,.2,.38,.43-.13,.02-.25,.04-.38,.07-.29,.06-.57,.12-.86,.18-.02,0-.03,.04-.05,.06,.02,0,.04,.01,.06,.02,0,.01,0,.02,0,.04-.05-.02-.12-.04-.13-.07-.1-.26-.18-.53-.27-.8Z"/>
  <path class="cls-1" d="M126.78,14.6s-.06-.09-.1-.09c-.55-.1-1.01,.3-1.04,.76-.03,.42-.06,.83-.09,1.25-.03,.5-.06,1.01-.09,1.51-.01,.16-.03,.32-.04,.48,0,.12-.07,.15-.17,.14-.27-.04-.54-.1-.82-.14-.09-.01-.18-.01-.3-.02v-.41c.05-.83,.08-1.66,.15-2.49,.05-.61,.29-1.15,.7-1.62,.37-.34,.78-.6,1.28-.71,.28-.01,.57-.02,.85-.04,.37-.03,.61,.18,.82,.43,.23,.29,.34,.63,.33,1-.01,.34-.05,.67-.03,1.01,.01,.25-.09,.31-.31,.33-.31,.03-.61,.11-.94,.18v-1.23c0-.15-.06-.26-.18-.34Z"/>
  <path class="cls-1" d="M130.72,15.47c-.11,.24-.21,.47-.32,.71-.1-.15-.08-.29-.06-.43,0-.06,.02-.12,.02-.17,.02-.39,.03-.78,.05-1.16,.03-.53,.06-1.07,.09-1.6,.01-.25,.01-.25-.23-.26,.13-.03,.27-.05,.4-.08-.03,.52-.05,1.04-.08,1.56-.02,.45-.04,.9-.05,1.35,0,.15,0,.15,.17,.09Z"/>
  <path class="cls-1" d="M125.86,20.96c.15,.03,.25-.06,.35-.13,.06-.03,.12-.06,.18-.09,.22,.04,.43,.09,.65,.12,.19,.03,.39,.03,.54,.18-.07,.1-.14,.21-.22,.31-.29-.06-.58-.13-.88-.17-.16-.03-.33-.02-.5-.02-.03,0-.06,0-.08,0-.24-.15-.52-.12-.78-.19-.24-.06-.49-.06-.74-.1-.13-.02-.26-.08-.39-.13,0-.31,0-.31,.29-.27,.28,.04,.56,.08,.84,.12,.09,.01,.14-.03,.15-.12,0-.09,0-.18,0-.26,0-.06,.02-.12,.04-.19,0,.2,0,.4,0,.59,.02,.29,.26,.44,.53,.34Z"/>
  <path class="cls-1" d="M124,20.73c.13,.04,.26,.1,.39,.13,.24,.04,.5,.04,.74,.1,.26,.07,.54,.03,.78,.19,.02,.01,.05,0,.08,0,.17,0,.33,0,.5,.02,.29,.05,.58,.11,.88,.17-.1,.23-.28,.32-.51,.28-.27-.04-.53-.06-.8-.1-.32-.05-.64-.11-.97-.16-.27-.04-.53-.07-.8-.1-.05,0-.1-.02-.14-.04-.12-.06-.08,.04-.1,.09-.01,0-.02,0-.03,0,0-.06-.01-.11-.02-.17,0-.13,0-.27,0-.4Z"/>
  <path class="cls-1" d="M115.63,29.05s-.05,.08-.05,.12c.02,.15-.05,.21-.19,.21-.03,0-.05,.01-.08,.02-.22,.02-.43,.04-.65,.05-.04-.01-.09-.03-.13-.04,.15-.36,.46-.5,.81-.57,.14-.03,.24,.06,.29,.21Z"/>
  <path class="cls-1" d="M125.63,28.79c-.01,.61-.04,1.22-.04,1.82,0,.82,0,1.64,0,2.47-.02-.12-.04-.24-.04-.36,0-.36,0-.36-.33-.19-.19,.1-.38,.2-.57,.28-.06,.03-.14,0-.2,0,0-.1,0-.21,0-.31,.21,.02,.37-.11,.55-.2,.52-.25,.52-.26,.5-.83,0-.37,0-.73,0-1.1v-.57c-.22,.11-.43,.21-.63,.33-.14,.08-.28,.18-.42,.27,0-.16,0-.32,0-.48,.06-.13,.18-.2,.3-.27,.23-.12,.45-.26,.69-.38,.09-.05,.1-.11,.11-.19,.01-.1,.06-.2,.09-.3Z"/>
  <path class="cls-1" d="M124.45,32.51c0,.1,0,.21,0,.31,0,.21,0,.41-.01,.62-.01-.05-.04-.11-.04-.16,0-1.29,0-2.57,0-3.86,0-.06,.03-.12,.04-.18,0,.23,0,.47,0,.7,0,.16,0,.32,0,.48v.67c.02-.15,.13-.2,.24-.26,.27-.14,.54-.29,.81-.44,0,.37,0,.73,0,1.1-.08,.02-.17,.03-.25,.07-.15,.07-.28,.16-.42,.23-.12,.06-.31,.09-.36,.18-.06,.12-.02,.3-.02,.46,0,.03,0,.06,0,.09Z"/>
  <path class="cls-1" d="M126.61,28.7s0-.06,0-.09c.03,0,.09,.04,.1,.02,.17-.19,.43-.24,.63-.37,.12-.08,.27-.12,.33-.27l.09,.34c0,.07,0,.15,0,.22,0,.89,0,1.78,0,2.67-.26,.13-.52,.26-.77,.4-.11,.06-.2,.12-.32,.04,0-.09,0-.18,0-.26,.08,.05,.15,.04,.22,0,.11-.07,.22-.13,.34-.19,.49-.25,.51-.17,.49-.83,0-.37,0-.73,0-1.1v-.57c-.08,.04-.15,.06-.21,.1-.28,.15-.56,.31-.84,.46-.02-.19-.03-.38-.05-.57Z"/>
  <path class="cls-1" d="M126.66,31.66c.12,.08,.22,.02,.32-.04,.25-.14,.52-.27,.77-.4,0,.08,0,.16,0,.24-.01,.45-.03,.9-.04,1.35-.16,.77-.63,1.26-1.34,1.54-.3,.12-.6,.19-.93,.17-.44-.02-.77-.26-.91-.68-.05-.13-.07-.28-.1-.42,0-.21,0-.41,.01-.62,.07,0,.15,.02,.2,0,.19-.08,.38-.18,.57-.28,.32-.17,.32-.17,.33,.19,0,.12,.03,.24,.04,.36,.13,.37,.49,.44,.8,.15,.13-.12,.21-.28,.22-.46,.01-.07,.03-.14,.03-.21,0-.3,0-.6,.01-.9Z"/>
  <path class="cls-1" d="M127.72,32.82c.01-.45,.03-.9,.04-1.35,0-.08,0-.16,0-.24,0-.89,0-1.78,0-2.67,0-.07,0-.15,0-.22,.01,.09,.04,.17,.04,.26,0,1.24,0,2.47,0,3.71,0,.17-.05,.34-.08,.52Z"/>
  <path class="cls-1" d="M131.83,26.66c-.19,.1-.39,.19-.58,.29-.1,.05-.21,.1-.33,.16,0-.08,0-.14,0-.19,0-.01,.03-.02,.03-.03-.04-.21,.1-.28,.26-.35,.16-.07,.3-.17,.46-.24,.13-.06,.17-.03,.18,.11,0,.09,0,.17,0,.26Z"/>
  <path class="cls-1" d="M131.83,28.34s0,.04,0,.07c0,.45,0,.45-.39,.66-.14,.07-.27,.15-.42,.2-.11,.04-.13,.1-.13,.2,0,.15,0,.3,0,.5-.13-.1-.14-.19-.13-.29,.02,.02,.04,.04,.09,.11v-.58s.04-.1,.03-.14c-.03-.19,.07-.28,.23-.35,.24-.1,.47-.23,.7-.35Z"/>
  <path class="cls-1" d="M116.83,16.04c.01,.23,.03,.47,.04,.7,0,.09-.03,.17-.04,.26-.02,.55,.01,1.1,0,1.65,0,.23-.06,.46-.03,.69,.03,.27-.09,.51-.06,.78,.03,.2,.04,.39,.04,.59,0,.15-.04,.31-.04,.46,0,.32,0,.64,0,.96,0,.41,.05,.46,.45,.47-.22,.04-.44,.08-.66,.11-.02,0-.07-.05-.08-.08-.02-.04,0-.09,0-.13,.02-.34,.06-.68,.08-1.03,.01-.2,0-.4,0-.6,.01-.03,.04-.06,.04-.1,.02-.48,.03-.97,.05-1.45,.01-.29,.03-.59,.04-.88,.01-.03,.04-.06,.04-.1,.02-.37,.03-.75,.05-1.12,.02-.36,.03-.72,.05-1.08,0-.03,.02-.07,.04-.1Z"/>
  <path class="cls-1" d="M116.66,18.44c-.01,.29-.03,.59-.04,.88-.02,.07-.04,.13-.04,.2,0,.15,0,.31,0,.46-.13,.03-.13-.06-.13-.14l.04-.71c0-.12,0-.23,.01-.35,.01-.15,.03-.3,.04-.44,.08-.03,.15-.03,.13,.09Z"/>
  <path class="cls-1" d="M122.72,33.83c0-.76,0-1.52,0-2.29,0-.14,0-.28,0-.42,.01,.12,.03,.24,.04,.35v.43c.28-.15,.53-.29,.79-.43,.08-.04,.18-.06,.26-.09,0,.29,0,.59,0,.88,0,.13-.02,.21-.15,.27-.27,.12-.53,.27-.81,.39-.08,.04-.09,.07-.09,.14,0,.19,0,.38,0,.57-.01,.06-.03,.12-.04,.18Z"/>
  <path class="cls-1" d="M123.81,31.4c-.09,.03-.18,.05-.26,.09-.26,.13-.51,.28-.79,.43v-.43c.29-.16,.58-.32,.86-.47,.15-.08,.19-.07,.19,.11,0,.1,0,.19,0,.29Z"/>
  <path class="cls-1" d="M120.55,32.5c.35-.2,.69-.39,1.05-.6v.52c-.3,.27-.7,.38-1.05,.62v-.54Z"/>
  <path class="cls-1" d="M129.22,21.61c-.18,.02-.35,.03-.53,.05,0-.08,.03-.12,.12-.14,.36-.05,.72-.12,1.08-.17,.17-.03,.1-.17,.13-.26,.01-.39,.03-.79,.03-1.18,0-.03-.06-.07-.1-.08-.24-.04-.49-.09-.73-.11-.4-.04-.4-.03-.4-.43,0-.04,0-.07,0-.11,.36,.05,.72,.1,1.08,.14,.19,.02,.25-.02,.23-.21-.03-.38,.1-.7,.3-1,.04-.07,.06-.15,.1-.22,.05-.09,.1-.09,.15,0,.03,.06,.04,.12,.06,.18-.04,0-.1-.01-.11,0-.11,.22-.28,.43-.31,.67-.07,.47-.07,.95-.1,1.42-.03,.41-.06,.81-.09,1.22-.06,.02-.13,.03-.19,.05-.25,.06-.49,.11-.74,.16Z"/>
  <path class="cls-1" d="M128.83,19.18s0,.07,0,.11c0,.4,0,.39,.4,.43,.25,.02,.49,.07,.73,.11,.04,0,.1,.05,.1,.08,0,.39-.02,.79-.03,1.18,0-.18,0-.35,0-.53,0-.09-.02-.13-.12-.14-.32-.05-.64-.12-.96-.17-.13-.02-.16-.08-.15-.19,0-.1,0-.2,0-.31,.02-.21,.03-.41,.05-.62,0,.01,.01,.03,.02,.04Z"/>
  <path class="cls-1" d="M126.61,20.38c.03-.18,.06-.35,.09-.53,.01,.22,.03,.25,.18,.26,.28,.03,.57,.07,.85,.09,.1,0,.12,.06,.12,.14-.02,.26-.15,.48-.28,.7-.15-.16-.34-.16-.54-.18-.22-.03-.44-.08-.65-.12,.07-.12,.15-.24,.22-.36Z"/>
  <path class="cls-1" d="M127.85,20.34c0-.08-.02-.13-.12-.14-.28-.02-.57-.06-.85-.09-.15-.02-.17-.04-.18-.26,.01-.16,.03-.33,.04-.49,.03,.03,.07,.08,.1,.09,.26,.04,.52,.06,.78,.09,.32,.04,.33,.04,.31,.36,0,.15-.05,.3-.08,.45Z"/>
  <path class="cls-1" d="M126.79,18.75s.04-.07,.07-.07c.27-.06,.54-.11,.81-.16,.08,0,.17,.02,.24,0,.12-.04,.12,.02,.12,.11,0,.08,0,.16,0,.24-.01,.14-.09,.21-.23,.19-.18-.03-.36-.07-.54-.1-.14-.02-.29-.03-.45-.04,0-.04,0-.1-.01-.16Z"/>
  <path class="cls-1" d="M126.96,16.29c-.02-.05-.03-.11-.05-.16,.01-.15,.03-.3,.04-.45v.48c.33-.07,.64-.15,.94-.18,.23-.02,.33-.08,.31-.33-.02-.34,.02-.67,.03-1.01,.01-.37-.1-.72-.33-1-.2-.25-.45-.46-.82-.43-.28,.02-.57,.03-.85,.04,.52-.18,1.04-.19,1.53,.08,.26,.14,.43,.4,.52,.69,.15,.45,.13,.91,.11,1.37,0,.14-.03,.28-.04,.42-.01,.19-.03,.21-.22,.24-.34,.06-.68,.12-1.02,.18-.02,0-.04,.02-.06,.03-.04,.01-.08,.02-.12,.04Z"/>
  <path class="cls-1" d="M126.66,31.66c0,.3,0,.6-.01,.9,0,.07-.02,.14-.03,.21,0-1,0-2,0-2.99,0-.36,0-.72,0-1.08,.02,.19,.03,.38,.05,.57v.55c.28-.15,.55-.29,.82-.43,.08-.04,.15-.08,.23-.11,0,.37,0,.73,0,1.1-.04,.01-.09,.01-.13,.03-.29,.14-.57,.28-.86,.42-.03,.02-.07,.07-.07,.11,0,.15,0,.31,0,.46,0,.09,0,.18,0,.26Z"/>
  <path class="cls-1" d="M124.45,32.51s0-.06,0-.09c0-.15-.04-.33,.02-.46,.05-.1,.24-.12,.36-.18,.14-.07,.28-.16,.42-.23,.08-.04,.17-.05,.25-.07,.02,.57,.02,.57-.5,.83-.17,.09-.34,.21-.55,.2Z"/>
  <path class="cls-1" d="M125.5,30.38c-.27,.15-.54,.3-.81,.44-.11,.06-.22,.12-.24,.26v-.67c.14-.09,.27-.19,.42-.27,.2-.11,.41-.21,.63-.33v.57Z"/>
  <path class="cls-1" d="M126.66,31.4c0-.15,0-.31,0-.46,0-.04,.03-.1,.07-.11,.28-.15,.57-.28,.86-.42,.04-.02,.08-.02,.13-.03,.03,.66,0,.58-.49,.83-.12,.06-.23,.13-.34,.19-.08,.04-.15,.06-.22,0Z"/>
  <path class="cls-1" d="M127.71,29.28c-.08,.04-.16,.07-.23,.11-.27,.14-.54,.28-.82,.43v-.55c.28-.15,.56-.31,.84-.46,.06-.03,.13-.06,.21-.1v.57Z"/>
  <path class="cls-1" d="M144.51,23.07c-.68,8.75-6.29,14.97-12.58,17.13,6.96-3.72,11.12-11.57,9.77-19.8-1.67-10.15-11.1-17.09-21.23-15.72,2.97-1.38,6.07-1.84,9.29-1.38,9.07,1.29,15.53,9.72,14.75,19.77Z"/>
  <path class="cls-2" d="M112.51,41.84c-6.54-5.85-8.07-14.09-5.97-20.4-1.27,7.79,2.44,15.87,9.79,19.79,9.08,4.84,20.32,1.55,25.38-7.32-.71,3.19-2.22,5.94-4.54,8.22-6.53,6.42-17.16,6.43-24.67-.29Z"/>
  <path class="cls-1" d="M107.9,7.01C116.03,.16,126.17-.29,133.37,3.32c-9.13-2.85-19.44,.24-25.39,8.39-7.34,10.06-5.31,24.1,4.47,31.68-3.71-1.39-6.75-3.68-9.09-6.84-6.59-8.92-4.8-21.67,4.53-29.53Z"/>
</svg>